<svg width="238" height="238" viewBox="0 0 238 238" fill="none" xmlns="http://www.w3.org/2000/svg">
<circle cx="118.505" cy="118.505" r="118.505" fill="#F7F7F7"/>
<path d="M161.341 79.9636C163.691 76.6735 169.519 72.0673 174.031 79.9636C174.031 100.644 174.031 117.408 174.031 123.205C172.465 122.892 167.827 123.393 161.811 127.905" stroke="black" stroke-width="3"/>
<path d="M147.71 108.165V68.2135C150.06 64.6101 156.077 59.5652 161.341 68.2135C161.341 100.175 161.341 112.708 161.341 114.275" stroke="black" stroke-width="3"/>
<path d="M135.49 103.465V77.6136C137.213 74.7935 142.07 70.8453 147.71 77.6136C148.086 90.774 147.71 104.248 147.71 109.105" stroke="black" stroke-width="3"/>
<path d="M122.329 109.105V92.6542C124.523 89.6774 130.132 85.5099 135.02 92.6542C135.396 102.807 135.49 105.971 135.49 106.285" stroke="black" stroke-width="3"/>
<path d="M174.031 107.225C177.635 102.995 185.406 95.8505 187.662 101.115C187.662 110.891 187.662 130.882 187.662 139.656C187.818 143.573 185.406 152.628 174.501 157.516C174.501 164.285 174.501 171.304 174.501 173.967H135.49V159.866" stroke="black" stroke-width="3"/>
<path d="M75.8047 79.5683C73.4546 76.2782 67.6264 71.672 63.1142 79.5683C63.1142 100.249 63.1142 117.013 63.1142 122.81C64.681 122.497 69.3185 122.998 75.3347 127.51" stroke="black" stroke-width="3"/>
<path d="M89.4353 107.77V67.8183C87.0852 64.2148 81.069 59.17 75.8048 67.8183C75.8048 99.7794 75.8048 112.313 75.8048 113.88" stroke="black" stroke-width="3"/>
<path d="M101.656 103.069V77.2183C99.9322 74.3982 95.0754 70.4501 89.4352 77.2183C89.0592 90.3787 89.4352 103.853 89.4352 108.709" stroke="black" stroke-width="3"/>
<path d="M114.816 108.709V92.2589C112.623 89.2821 107.014 85.1147 102.126 92.2589C101.75 102.411 101.656 105.576 101.656 105.889" stroke="black" stroke-width="3"/>
<path d="M63.1143 106.83C59.5108 102.599 51.7399 95.4552 49.4838 100.719C49.4838 110.496 49.4838 130.487 49.4838 139.261C49.3272 143.177 51.7399 152.233 62.6443 157.121C62.6443 163.889 62.6443 170.908 62.6443 173.572H101.656V159.471" stroke="black" stroke-width="3"/>
<path d="M152.88 116.624C144.608 98.1997 126.246 106.127 118.099 112.394C109.952 104.561 90.8385 99.7043 82.8476 116.624C72.6793 138.155 102.745 162.529 118.099 171.616C133.609 162.686 162.28 139.185 152.88 116.624Z" fill="#FFADAD" stroke="#F45B69" stroke-width="3"/>
</svg>
