<svg width="238" height="238" viewBox="0 0 238 238" fill="none" xmlns="http://www.w3.org/2000/svg">
<circle cx="118.505" cy="118.505" r="118.505" fill="#F7F7F7"/>
<path d="M121.696 121.723C113.318 121.723 107.599 121.99 104.14 125.714L130.874 131.3C132.869 133.694 135.423 139.12 129.677 141.674C121.697 140.716 111.456 139.147 107.333 138.482C104.939 139.014 100.31 141.035 100.948 144.866C101.746 149.654 101.747 152.846 110.525 154.442C117.547 155.719 136.061 157.9 144.44 158.831C155.213 152.846 168.779 146.063 171.572 142.871C174.462 139.567 167.582 136.486 160.4 133.693C158.166 125.394 148.829 123.053 144.44 122.92L135.662 127.309C134.997 126.245 128.879 121.723 121.696 121.723Z" fill="#AF856C"/>
<path d="M163.592 55.0899C165.986 68.656 156.011 95.7895 141.647 92.1977C120.205 86.8362 144.041 53.4933 163.592 55.0899Z" fill="#1EAA3D"/>
<path d="M110.525 58.2811C126.382 58.2811 142.445 79.4288 141.647 87.808C139.469 110.675 99.2499 78.9979 110.525 58.2811Z" fill="#1EAA3D"/>
<path d="M72.551 135.194L72.6777 135.049L72.7638 134.877C72.9052 134.594 73.3273 134.048 74.4786 132.895C75.5862 131.786 77.2262 130.249 79.6278 128.007C81.6493 126.121 84.9892 125.164 88.6157 124.834C92.1699 124.51 95.7085 124.813 97.8629 125.19L108.603 127.577L108.643 127.586L108.683 127.593L130.713 131.244C131.697 131.965 133.48 134.085 132.98 137.585C132.751 139.193 131.784 140.157 130.499 140.757C129.197 141.365 127.671 141.534 126.653 141.491L113.304 139.135C111.68 138.565 109.184 138.075 106.788 138.472C104.233 138.895 101.704 140.369 100.707 143.758C99.7401 147.044 100.765 149.567 102.487 151.272C104.119 152.888 106.315 153.727 107.837 154.031C114.468 155.357 129.523 158.195 136.318 158.842C139.819 159.175 142.552 158.903 144.577 158.394C146.415 157.932 147.763 157.249 148.531 156.567C151.223 155.018 160.756 149.79 178.7 140.505C181.778 140.616 183.835 141.188 185.178 141.94C186.533 142.699 187.202 143.663 187.501 144.676C188.114 146.751 187.271 149.427 186.047 151.467C176.332 157.404 155.371 170.254 146.833 175.63C138.608 180.809 129.959 180.551 126.822 179.827L126.772 179.816L126.721 179.807C117.544 178.344 97.1951 175.099 89.2154 173.823C85.0788 173.161 81.8724 173.287 79.5115 173.752C77.3193 174.184 75.7415 174.932 74.8797 175.716L61.7209 184.251L48.9457 154.686C52.3543 152.305 58.4704 147.989 61.948 145.381C65.9078 142.411 70.6728 137.34 72.551 135.194Z" stroke="black" stroke-width="3"/>
<path d="M146.2 78.6092C143.116 81.8194 137.347 88.8984 138.945 91.5322" stroke="black" stroke-width="3"/>
<path d="M171.452 142.902C171.151 140.934 169.58 136.746 165.705 135.737C161.83 134.728 160.058 133.219 159.656 132.59C159.046 130.749 157.304 126.847 155.215 125.972C152.603 124.878 150.539 122.479 145.115 122.97C139.691 123.461 138.084 126.932 135.439 126.284C132.794 125.637 124.889 121.714 121.697 121.714C118.505 121.714 105.234 123.361 104.141 125.972" stroke="black" stroke-width="3"/>
<path d="M136.869 101.252C136.802 108.131 136.239 124.01 135.06 125.358" stroke="black" stroke-width="3"/>
<path d="M131.111 70.2945C127.83 66.1578 119.188 58.0873 110.867 58.8995C102.653 72.6484 123.756 102.513 141.076 93.0389" stroke="black" stroke-width="3"/>
<path d="M163.241 66.8692C163.341 65.53 165.428 61.6464 164.179 54.37C145.497 52.0705 121.837 86.2082 138.465 91.945C151.767 96.5344 160.168 81.9017 162.705 74.0117" stroke="black" stroke-width="3"/>
</svg>
