<svg width="238" height="238" viewBox="0 0 238 238" fill="none" xmlns="http://www.w3.org/2000/svg">
<circle cx="118.505" cy="118.505" r="118.505" fill="#F7F7F7"/>
<path d="M142.046 73.4172L148.682 64.747C151.553 63.8282 157.158 63.6444 156.607 70.2601C152.472 77.4272 145.925 86.1103 143.169 89.556" stroke="black" stroke-width="3"/>
<path d="M141.647 143.243C138.546 147.723 132.129 146.41 134.885 139.519C144.809 130.973 151.981 124.243 153.589 122.979C157.38 122.979 161.239 124.771 158.758 131.938C152.969 140.483 145.81 150.43 143.169 154.68C141.331 159.044 136.691 168.325 132.832 170.53C132.556 179.351 132.717 182.016 132.832 182.245C129.271 185.576 117.244 190.239 92.1592 182.245C92.1592 169.841 92.1592 163.294 92.1592 162.26C90.7809 156.862 85.3242 145.997 81.7407 136.073C80.5921 134.006 78.5707 127.665 79.6733 118.844C78.6395 106.095 77.9504 110.23 78.295 106.784C78.6395 103.339 79.6733 98.5148 79.6733 97.8256C79.6733 97.1365 81.0514 94.0354 80.7068 92.3125C80.3623 90.5897 80.0177 85.7657 81.0514 85.0765C82.0851 84.3874 81.3389 83.6981 85.5308 83.6982C87.9428 83.6983 90.0102 85.421 90.3548 85.421" stroke="black" stroke-width="3"/>
<path d="M134.21 135.729C126.216 137.107 127.663 130.905 128.352 128.493L149.371 107.129C157.879 105.2 158.414 111.608 157.641 115.054C156.377 116.432 149.922 121.946 134.21 135.729Z" stroke="black" stroke-width="3"/>
<path d="M130.075 105.062L143.513 89.5561C148.682 88.1778 150.749 89.2114 152.817 91.968C154.47 94.1732 153.85 95.7584 153.506 98.1703C151.898 99.7783 147.441 104.924 138.345 114.021C129.248 116.502 129.041 109.311 130.075 105.062Z" stroke="black" stroke-width="3"/>
<path fill-rule="evenodd" clip-rule="evenodd" d="M100.355 50.2748C94.8323 50.2748 90.3552 54.7519 90.3552 60.2748V138.822C90.3552 144.345 94.8323 148.822 100.355 148.822H132.041C135.328 148.822 138.244 147.236 140.067 144.788C137.244 146.457 132.809 144.709 134.885 139.519C137.473 137.29 139.874 135.185 142.038 133.268L142.041 133.266V128.871C139.733 130.889 137.131 133.166 134.21 135.729C126.216 137.107 127.663 130.905 128.352 128.493L142.041 114.579V110.285C140.904 111.447 139.674 112.691 138.345 114.021C129.248 116.502 129.041 109.311 130.075 105.062L142.041 91.2551V60.2748C142.041 54.7519 137.564 50.2748 132.041 50.2748H100.355Z" fill="#72E1E1"/>
<path d="M140.067 144.788L141.27 145.684L139.304 143.497L140.067 144.788ZM134.885 139.519L133.906 138.382L133.629 138.621L133.492 138.962L134.885 139.519ZM142.038 133.268L143.032 134.391L143.033 134.391L142.038 133.268ZM142.041 133.266L143.036 134.388L143.541 133.94V133.266H142.041ZM142.041 128.871H143.541V125.567L141.053 127.742L142.041 128.871ZM134.21 135.729L134.465 137.207L134.881 137.135L135.199 136.856L134.21 135.729ZM128.352 128.493L127.283 127.441L127.014 127.713L126.91 128.081L128.352 128.493ZM142.041 114.579L143.11 115.631L143.541 115.193V114.579H142.041ZM142.041 110.285H143.541V106.607L140.969 109.236L142.041 110.285ZM138.345 114.021L138.739 115.468L139.124 115.363L139.405 115.081L138.345 114.021ZM130.075 105.062L128.941 104.079L128.703 104.354L128.617 104.707L130.075 105.062ZM142.041 91.2551L143.174 92.2375L143.541 91.8146V91.2551H142.041ZM91.8552 60.2748C91.8552 55.5804 95.6607 51.7748 100.355 51.7748V48.7748C94.0039 48.7748 88.8552 53.9235 88.8552 60.2748H91.8552ZM91.8552 138.822V60.2748H88.8552V138.822H91.8552ZM100.355 147.322C95.6607 147.322 91.8552 143.516 91.8552 138.822H88.8552C88.8552 145.173 94.0039 150.322 100.355 150.322V147.322ZM132.041 147.322H100.355V150.322H132.041V147.322ZM138.864 143.892C137.312 145.977 134.834 147.322 132.041 147.322V150.322C135.822 150.322 139.176 148.496 141.27 145.684L138.864 143.892ZM133.492 138.962C132.897 140.449 132.713 141.829 132.949 143.051C133.19 144.295 133.85 145.277 134.755 145.937C136.507 147.216 138.977 147.175 140.83 146.079L139.304 143.497C138.333 144.07 137.175 143.99 136.523 143.514C136.225 143.297 135.99 142.974 135.895 142.481C135.795 141.968 135.835 141.183 136.278 140.076L133.492 138.962ZM141.043 132.145C138.883 134.059 136.488 136.159 133.906 138.382L135.864 140.655C138.458 138.421 140.864 136.312 143.032 134.391L141.043 132.145ZM141.046 132.143L141.043 132.146L143.033 134.391L143.036 134.388L141.046 132.143ZM140.541 128.871V133.266H143.541V128.871H140.541ZM135.199 136.856C138.12 134.294 140.721 132.017 143.028 130L141.053 127.742C138.745 129.76 136.143 132.037 133.221 134.601L135.199 136.856ZM126.91 128.081C126.73 128.708 126.485 129.638 126.363 130.656C126.243 131.658 126.227 132.864 126.599 134C126.991 135.194 127.808 136.277 129.227 136.894C130.578 137.482 132.317 137.577 134.465 137.207L133.955 134.25C132.106 134.569 131.028 134.406 130.423 134.143C129.886 133.909 129.609 133.55 129.45 133.064C129.271 132.52 129.246 131.809 129.342 131.013C129.435 130.233 129.629 129.483 129.794 128.905L126.91 128.081ZM140.971 113.527L127.283 127.441L129.421 129.545L143.11 115.631L140.971 113.527ZM140.541 110.285V114.579H143.541V110.285H140.541ZM140.969 109.236C139.836 110.394 138.609 111.635 137.284 112.96L139.405 115.081C140.738 113.748 141.972 112.499 143.113 111.334L140.969 109.236ZM137.95 112.573C135.835 113.15 134.425 113.11 133.508 112.83C132.641 112.566 132.099 112.053 131.739 111.368C130.942 109.849 131.039 107.446 131.532 105.416L128.617 104.707C128.077 106.927 127.761 110.244 129.083 112.762C129.783 114.095 130.933 115.181 132.631 115.7C134.279 116.203 136.306 116.131 138.739 115.468L137.95 112.573ZM131.208 106.044L143.174 92.2375L140.907 90.2727L128.941 104.079L131.208 106.044ZM140.541 60.2748V91.2551H143.541V60.2748H140.541ZM132.041 51.7748C136.735 51.7748 140.541 55.5804 140.541 60.2748H143.541C143.541 53.9235 138.392 48.7748 132.041 48.7748V51.7748ZM100.355 51.7748H132.041V48.7748H100.355V51.7748Z" fill="black"/>
</svg>
