<svg width="396" height="204" viewBox="0 0 396 204" fill="none" xmlns="http://www.w3.org/2000/svg">

<style>
.rotate {
    transform-origin: bottom right;
    transform-box: fill-box;
    animation: deg45 4s cubic-bezier(.8, 0, .2, 1) infinite;
}
@keyframes deg45 {
    50% { transform: rotate(45deg); }
    100% { transform: rotate(0deg); }
  }
</style>

<path fill-rule="evenodd" clip-rule="evenodd" d="M210.895 0.541522C209.37 1.69327 209.529 -2.83656 209.47 41.313C209.413 84.2999 209.36 82.0498 210.443 83.1333C211.689 84.378 208.734 84.2811 243.806 84.2336L275.322 84.19L276.081 83.6438C276.829 83.1056 277.548 82.0894 277.548 81.5709C277.548 81.0653 277.767 81.2018 280.846 83.626C284.187 86.2551 285.84 85.8078 293.031 80.333L293.423 80.0342L292.961 79.2258C292.279 78.0315 292.194 77.9543 289.506 76.1199C286.192 73.8579 286.457 73.9717 285.621 74.4466L284.924 74.8424L284.246 74.4437C283.873 74.224 283.134 73.8045 282.605 73.5106C282.074 73.2167 281.422 72.8546 281.155 72.7052C280.888 72.5567 280.377 72.2411 280.019 72.0046C279.662 71.7681 279.32 71.5742 279.259 71.5742C279.199 71.5742 278.827 71.3704 278.432 71.121L277.714 70.6678V36.7317C277.714 -0.299534 277.78 2.29686 276.792 1.10058C275.799 -0.101639 278.962 0.00225634 243.468 0.00225634H211.609L210.895 0.541522ZM275.284 1.18072C275.758 1.43403 276.196 1.94955 276.486 2.59469C276.69 3.05183 276.724 7.75977 276.724 36.613V70.1009L275.94 69.6605C275.51 69.4181 274.831 69.0441 274.433 68.8304C274.034 68.6166 273.625 68.3772 273.525 68.299C273.425 68.2199 273.009 67.9695 272.601 67.7419C271.874 67.3353 270.2 66.3755 269.22 65.8026C268.948 65.6433 268.243 65.2376 267.654 64.9011C266.235 64.0918 266.267 64.1264 266.024 63.1775C265.167 59.832 260.713 58.5942 258.206 61.0036C254.726 64.346 256.753 69.5804 261.53 69.5923L263.075 69.5952L265.079 71.2031C266.182 72.0877 267.329 72.9971 267.628 73.2236C267.928 73.4502 268.64 74.0073 269.211 74.4605C269.783 74.9137 271.194 76.0268 272.348 76.9342C274.193 78.3848 276.527 80.247 276.702 80.4082C276.894 80.5854 276.467 81.7282 276.018 82.2398C275.031 83.3628 277.503 83.2837 243.525 83.2837H212.625L211.897 82.9037C210.455 82.1487 210.587 86.4737 210.635 41.7869L210.676 2.18702L211.335 1.59334L211.995 0.99965L243.464 0.995692C266.819 0.992724 275.022 1.04022 275.284 1.18072ZM284.271 2.30279C280.508 3.4961 281.944 9.02135 285.773 8.08431C288.953 7.30658 288.623 2.65208 285.357 2.24046C285.008 2.19593 284.519 2.22462 284.271 2.30279ZM296.183 2.2929C293.213 3.26358 293.27 7.43324 296.262 8.09421C298.789 8.65228 300.772 6.1677 299.63 3.87903C299.018 2.65505 297.381 1.90106 296.183 2.2929ZM308.016 2.30477C305.238 3.17947 305.21 7.15124 307.977 8.02297C311.25 9.05499 313.385 4.63104 310.527 2.74014C309.845 2.28894 308.698 2.09006 308.016 2.30477ZM319.947 2.3305C317.194 3.15671 317.086 7.11067 319.791 8.00911C321.848 8.69185 323.784 7.33033 323.788 5.19702C323.791 3.25368 321.806 1.77243 319.947 2.3305ZM331.384 2.55511C328.913 3.79592 329.3 7.44214 331.97 8.08332C334.797 8.76112 336.886 5.59776 335.068 3.39221C334.06 2.1702 332.746 1.87138 331.384 2.55511ZM343.515 2.40867C340.079 3.89882 341.734 8.94516 345.371 8.07244C347.997 7.44214 348.381 3.78206 345.949 2.56995C344.984 2.09006 344.348 2.04751 343.515 2.40867ZM283.359 14.0608C280.942 15.7389 282.108 19.5445 285.038 19.5445C287.82 19.5445 289.019 16.4118 287.008 14.4002C286.123 13.5156 284.378 13.3533 283.359 14.0608ZM295.11 14.2092C292.845 16.197 294.333 19.9155 297.262 19.585C300.005 19.2763 300.9 15.4569 298.568 14.0152C297.654 13.4512 295.859 13.5512 295.11 14.2092ZM307.053 14.226C305.595 15.3421 305.517 17.6239 306.893 18.8508C309.492 21.1652 313.234 17.9158 311.365 14.9681C310.452 13.5294 308.42 13.1791 307.053 14.226ZM318.89 14.3042C317.124 15.736 317.56 18.5025 319.693 19.3941C321.912 20.3212 324.349 18.1542 323.718 15.8151C323.17 13.7758 320.551 12.9565 318.89 14.3042ZM330.627 14.4912L329.825 15.2917L329.831 16.5117C329.846 19.5405 332.948 20.7486 334.968 18.5104C337.491 15.7132 333.293 11.8255 330.627 14.4912ZM343.258 13.848C341.671 14.4902 341.133 17.2904 342.355 18.55C344.45 20.712 347.472 19.5138 347.472 16.5226C347.472 14.321 345.375 12.9901 343.258 13.848ZM88.1454 19.8245C86.2684 20.8892 86.0606 23.351 87.7279 24.7788C89.7415 26.5025 92.516 25.1627 92.516 22.4664V21.2285L91.7145 20.4281L90.914 19.6266L89.695 19.6315C89.0241 19.6345 88.3275 19.7216 88.1454 19.8245ZM99.1781 20.0936C96.8796 21.7619 98.152 25.4813 101.023 25.4813C103.92 25.4813 105.081 21.6402 102.68 19.9947C101.833 19.4148 100.045 19.4653 99.1781 20.0936ZM110.883 19.8393C109.054 20.8842 108.847 23.3163 110.464 24.7768C113.262 27.3059 117.142 23.0977 114.472 20.4281L113.672 19.6266L112.453 19.6325C111.782 19.6355 111.076 19.7285 110.883 19.8393ZM122.098 19.9917C119.501 21.9865 121.073 25.9681 124.269 25.4892C126.847 25.1024 127.621 21.3196 125.403 19.9482C124.628 19.4693 122.748 19.494 122.098 19.9917ZM284.475 25.0024C281.505 26.0503 281.109 29.4966 283.825 30.6642C287.254 32.1395 289.775 27.1793 286.518 25.3636C285.968 25.0568 284.871 24.8629 284.475 25.0024ZM296.348 25.0004C293.567 25.9513 293.092 29.4115 295.583 30.589C298.378 31.9119 301.054 29.0088 299.488 26.354C298.957 25.4536 297.217 24.7036 296.348 25.0004ZM307.645 25.2864C306.34 25.9117 305.795 26.8735 305.953 28.2736C306.279 31.1619 309.974 31.9525 311.442 29.4471C312.905 26.9497 310.25 24.0387 307.645 25.2864ZM319.891 25.135C318.408 25.6733 317.895 26.3986 317.895 27.955C317.895 31.0244 321.689 32.1267 323.33 29.5342C324.794 27.2188 322.442 24.2089 319.891 25.135ZM332.041 25.0529C328.674 25.8979 329.22 30.9749 332.681 31.0026C333.509 31.0085 334.654 30.3862 335.185 29.6391C336.729 27.4712 334.626 24.4048 332.041 25.0529ZM343.68 25.1142C341.11 25.9642 340.942 29.5689 343.42 30.6939C344.277 31.0828 344.903 31.0788 345.785 30.6791C349.171 29.1424 347.207 23.9466 343.68 25.1142ZM221.705 25.4704C220.612 25.9464 220.653 25.5793 220.655 34.8764C220.658 44.2092 220.629 43.8154 221.374 44.3259C222.183 44.88 236.334 44.9077 237.034 44.3566C237.76 43.7857 237.802 43.2682 237.803 34.9259C237.804 26.074 237.785 25.9108 236.713 25.4625C235.921 25.132 222.466 25.14 221.705 25.4704ZM88.6234 31.5547C87.5894 31.8842 86.5791 33.2834 86.5791 34.3856C86.5791 37.1908 90.2164 38.4306 91.9955 36.231C93.8171 33.9809 91.4236 30.6612 88.6234 31.5547ZM99.9994 31.5577C96.84 32.7273 97.5801 37.2729 100.93 37.2729C102.47 37.2729 103.054 36.9355 103.66 35.6947C104.833 33.2992 102.48 30.6395 99.9994 31.5577ZM111.169 31.6814C108.058 33.1043 109.037 37.2729 112.484 37.2729H113.672L114.472 36.4715C116.795 34.1492 114.152 30.3169 111.169 31.6814ZM122.771 31.53C120.663 32.0891 120.089 35.3672 121.854 36.7643C122.706 37.4402 124.549 37.5104 125.45 36.9019C128.314 34.9655 126.153 30.6325 122.771 31.53ZM283.881 36.5615C282.11 37.5975 281.609 38.9808 282.396 40.6688C283.528 43.101 286.899 42.7814 287.811 40.1553C288.627 37.8053 285.946 35.3543 283.881 36.5615ZM319.802 36.4507C317.825 37.271 317.657 38.1189 318.816 41.4228C319.328 42.8823 322.614 42.3974 323.471 40.7361C324.688 38.3792 322.188 35.4602 319.802 36.4507ZM331.703 36.4982C329.348 37.3996 329.07 40.9934 331.277 42.0402C332.368 42.5587 334.203 42.2015 334.989 41.3179C337.017 39.0352 334.545 35.4107 331.703 36.4982ZM343.328 36.6139C340.52 38.0982 341.371 42.2203 344.486 42.2203C346.539 42.2203 347.476 41.3199 347.466 39.3578C347.454 36.9622 345.331 35.5552 343.328 36.6139ZM100.35 43.3711C97.3832 44.0321 97.2259 48.3719 100.139 49.1566C102.176 49.7047 103.976 48.3422 103.958 46.2643C103.942 44.4081 102.15 42.9704 100.35 43.3711ZM111.78 43.379C108.736 43.9034 108.551 48.4244 111.545 49.1417C114.729 49.9056 116.731 46.2376 114.311 44.0756C113.981 43.7807 113.673 43.5373 113.626 43.5353C113.58 43.5334 113.282 43.474 112.966 43.4028C112.648 43.3325 112.115 43.3216 111.78 43.379ZM123.437 43.2998C123.346 43.3246 123.086 43.3859 122.859 43.4354C120.034 44.0499 120.174 48.5827 123.036 49.1704C125.776 49.7334 127.716 47.0787 126.286 44.7247C125.758 43.8579 124.212 43.0841 123.437 43.2998ZM88.3107 43.6076C85.5174 44.8484 86.4811 49.3109 89.5426 49.3109C92.7752 49.3109 93.7568 45.0997 90.8744 43.5957C90.3381 43.3157 88.9519 43.3226 88.3107 43.6076ZM296.761 46.768C295.37 47.6377 293.806 48.2631 292.399 48.5114L291.36 48.6945L291.448 49.5385C291.725 52.1774 294.132 55.4793 296.903 57.0209C298.487 57.9016 298.563 57.8976 299.068 56.9002C300.419 54.2346 300.245 50.7694 298.646 48.4897C298.053 47.6446 297.915 47.3122 297.915 46.7304C297.915 46.3356 297.915 46.0199 297.915 46.0288C297.915 46.0377 297.395 46.3702 296.761 46.768ZM88.004 55.7445C85.4392 57.3712 86.5791 61.1847 89.6297 61.1847C92.7257 61.1847 93.7558 56.9368 90.9853 55.5951C89.9374 55.0885 88.9628 55.137 88.004 55.7445ZM99.9608 55.4249C96.835 56.6766 97.6563 61.1847 101.011 61.1847C103.325 61.1847 104.704 58.7872 103.56 56.7528C102.878 55.5417 101.208 54.9252 99.9608 55.4249ZM110.865 55.6604C108.189 57.301 109.261 61.1847 112.388 61.1847C116.247 61.1847 116.352 55.5338 112.498 55.2903C111.718 55.2419 111.448 55.3032 110.865 55.6604ZM122.7 55.4318C119.75 56.6093 120.345 60.9234 123.49 61.151C126.785 61.3895 128.043 57.0724 125.105 55.605C124.352 55.229 123.383 55.1587 122.7 55.4318ZM88.3107 67.5183C86.6602 68.304 86.0725 70.4155 87.1213 71.7909C87.7882 72.6656 88.0762 72.7764 88.8321 72.4538C89.1804 72.3044 90.1333 71.9868 90.9496 71.7473L92.4338 71.312L92.4813 70.1375C92.5753 67.8488 90.4371 66.5051 88.3107 67.5183ZM99.6076 67.5638C97.6494 68.5682 97.3892 71.1131 99.1524 72.0066C99.6204 72.2441 100.207 72.5894 100.458 72.7734C101.844 73.7985 103.951 72.2302 103.951 70.1731C103.951 67.8438 101.698 66.4912 99.6076 67.5638ZM111.18 67.453C109.616 68.1625 108.912 69.8861 109.596 71.3288C110.145 72.4845 110.27 72.4914 111.74 71.4416C112.466 70.9221 113.502 70.276 114.043 70.0049C115.478 69.2875 115.508 69.2143 114.74 68.3386C113.727 67.1859 112.462 66.8712 111.18 67.453ZM122.53 67.4758L121.788 67.8399L122.942 67.9844C123.578 68.0635 124.565 68.2258 125.137 68.3445C126.038 68.5325 126.164 68.5296 126.085 68.3228C126.035 68.1921 125.993 68.0546 125.993 68.019C125.993 67.4045 123.479 67.0097 122.53 67.4758ZM90.6637 82.6682C88.2444 83.6785 87.4785 84.4443 88.47 84.8589C90.1986 85.5812 92.516 84.3276 92.516 82.6692C92.516 81.9785 92.3171 81.9785 90.6637 82.6682ZM98.1233 82.6751C98.1233 84.2722 100.553 85.6109 102.099 84.8649C103.908 83.9921 103.838 83.8863 100.977 83.1798C99.7253 82.8701 98.5706 82.5762 98.4113 82.5267C98.2282 82.4693 98.1233 82.5238 98.1233 82.6751ZM317.87 86.6726C316.155 87.0575 312.516 87.4335 310.119 87.4721L307.81 87.5097L307.595 89.2304C307.329 91.3558 307.439 95.6482 307.795 97.0533C308.125 98.3574 308.123 99.4418 307.791 99.9168C307.609 100.177 307.578 100.35 307.694 100.467C307.903 100.676 308.222 100.5 308.222 100.177C308.222 100.046 308.281 99.9396 308.352 99.9396C308.472 99.9396 310.44 97.451 311.043 96.5367C311.19 96.3151 311.416 96.045 311.547 95.9342C311.678 95.8243 312.114 95.289 312.514 94.7448C312.914 94.2006 313.43 93.5287 313.659 93.2517C313.889 92.9746 314.262 92.4977 314.489 92.1929C314.716 91.8872 315.124 91.3618 315.396 91.0244C315.668 90.6869 316.224 89.9805 316.633 89.4531C317.04 88.9267 317.675 88.1202 318.042 87.6621C318.698 86.8438 319.01 86.4005 318.911 86.4332C318.882 86.4431 318.414 86.5509 317.87 86.6726ZM139.351 106.728C137.338 107.302 137.372 107.075 137.372 119.787C137.372 129.625 137.345 130.753 137.112 130.843C136.968 130.898 135.125 130.943 133.015 130.943C124.43 130.943 120.691 131.118 120.269 131.541C119.758 132.051 119.758 132.969 120.27 133.48L120.648 133.858L134.002 133.957C153.524 134.101 180.377 133.927 180.922 133.652C182.781 132.714 182.757 132.91 182.693 119.564L182.641 108.763L182.18 107.995C181.284 106.498 183.224 106.622 160.213 106.591C147.138 106.574 139.723 106.622 139.351 106.728ZM103.026 154.376C97.4653 155.686 96.8054 163.73 102.068 166.065L102.988 166.473L112.182 166.527L121.376 166.582V181.973V197.366L120.427 197.476C119.906 197.538 118.856 197.701 118.093 197.84C117.331 197.979 116.472 198.115 116.185 198.141C115.899 198.167 115.038 198.376 114.274 198.602C113.509 198.83 112.66 199.065 112.388 199.126C110.77 199.485 106.285 201.499 104.968 202.458L104.496 202.802L104.896 203.018C105.348 203.263 107.387 203.285 123.89 203.216L133.909 203.175V200.872V198.571L133.208 198.381C132.822 198.277 132.099 198.131 131.6 198.058C131.102 197.984 129.988 197.807 129.127 197.664C128.265 197.521 127.504 197.404 127.437 197.404C127.368 197.403 127.313 190.464 127.313 181.984V166.564H134.734C140.55 166.564 142.159 166.52 142.174 166.358C142.252 165.511 141.755 164.83 140.938 164.662C140.492 164.571 136.031 163.362 132.755 162.444C127.616 161.004 119.911 158.557 114.861 156.762C113.955 156.44 112.321 155.73 111.233 155.186L109.254 154.196L106.451 154.212C104.909 154.221 103.369 154.295 103.026 154.376ZM151.803 162.97C150.925 163.474 150.753 164.899 151.486 165.587L151.911 165.987H156.997H162.082L162.509 165.587C163.236 164.904 163.096 163.444 162.262 163.013C161.659 162.701 152.338 162.664 151.803 162.97ZM151.803 168.404C150.918 168.887 150.744 170.333 151.486 171.03L151.911 171.429H156.997H162.082L162.509 171.03C163.236 170.346 163.096 168.886 162.262 168.455C161.674 168.15 152.349 168.105 151.803 168.404ZM267.862 181.265C267.909 181.842 268.139 183.761 268.374 185.529C268.608 187.298 269.046 190.675 269.347 193.033L269.893 197.321H272.772H275.652L275.695 189.713L275.738 182.105L273.922 181.673C272.924 181.436 271.271 181.049 270.251 180.814C269.231 180.578 268.256 180.348 268.086 180.301C267.8 180.223 267.782 180.298 267.862 181.265ZM314.843 181.859C312.493 181.91 312.477 181.913 312.564 182.277C312.613 182.479 312.774 183.72 312.924 185.035C313.074 186.35 313.374 188.762 313.591 190.395C314.002 193.485 314.072 194.084 314.251 196.001C314.387 197.462 314.238 197.397 317.499 197.4L320.261 197.403V189.569V181.737L318.735 181.772C317.896 181.793 316.145 181.832 314.843 181.859Z" fill="#E6E3ED"/>
<path fill-rule="evenodd" clip-rule="evenodd" d="M242.259 48.2947C241.59 48.9636 241.571 49.2595 241.629 58.1727L241.68 66.1261L242.219 66.6654L242.758 67.2046L249.928 67.2501C253.873 67.2759 257.099 67.267 257.099 67.2294C257.099 67.1928 256.98 66.8751 256.833 66.5239C256.122 64.823 256.679 62.4274 258.088 61.1233L258.749 60.5118V54.6511V48.7914L258.267 48.3096L257.785 47.8267H250.256H242.727L242.259 48.2947ZM131.428 84.6946C130.346 85.8454 128.342 86.6766 125.446 87.1763C120.8 87.9787 119.342 91.1906 121.717 95.3978L122.253 96.3487L122.928 96.2587C124.143 96.0964 124.58 95.9747 125.433 95.5631C125.895 95.3395 126.331 95.1574 126.4 95.1574C126.806 95.1574 129.225 92.8885 129.919 91.8585C130.254 91.3598 130.57 90.9145 130.62 90.869C130.744 90.7572 131.445 89.0909 131.531 88.705C131.57 88.5348 131.649 88.2291 131.709 88.0242C131.827 87.6146 131.985 84.2731 131.886 84.2731C131.851 84.2731 131.645 84.4621 131.428 84.6946ZM309.336 87.5255C309.631 87.5622 310.113 87.5622 310.407 87.5255C310.702 87.4889 310.461 87.4593 309.872 87.4593C309.282 87.4593 309.041 87.4889 309.336 87.5255ZM129.25 120.884C128.648 121.246 128.121 121.543 128.077 121.543C128.012 121.543 126.972 122.135 124.25 123.721C123.985 123.875 123.412 124.193 122.977 124.427C122.459 124.707 122.23 124.922 122.312 125.053C122.451 125.281 122.874 125.886 124.522 128.222C125.163 129.129 125.849 130.112 126.047 130.406L126.406 130.939L131.66 130.941L136.913 130.943L136.806 130.516C136.748 130.282 136.554 129.935 136.377 129.744C136.199 129.553 136.053 129.333 136.053 129.255C136.053 129.134 135.546 128.26 134.777 127.058C134.664 126.882 134.348 126.33 134.074 125.831C133.801 125.332 133.268 124.442 132.891 123.852C132.514 123.263 132.086 122.554 131.938 122.278C130.744 120.035 130.697 120.01 129.25 120.884ZM129.953 138.89C129.955 139.606 130.574 141.86 130.84 142.127C131.228 142.514 131.123 141.745 130.541 139.931C130.512 139.84 130.432 139.524 130.364 139.227C130.213 138.576 129.951 138.361 129.953 138.89ZM131.737 138.911C131.934 139.121 132.095 139.367 132.095 139.459C132.095 139.551 132.282 139.801 132.508 140.013C132.735 140.226 132.92 140.487 132.92 140.594C132.92 140.7 133.076 140.928 133.267 141.101C133.457 141.273 133.727 141.637 133.867 141.909C134.006 142.181 134.169 142.442 134.23 142.487C134.29 142.533 134.517 142.866 134.734 143.229C134.952 143.592 135.289 144.038 135.483 144.219C136.247 144.929 137.735 146.898 140.36 150.671L143.099 154.608L143.183 155.685C143.563 160.613 149.986 161.683 152.038 157.16C152.401 156.362 152.492 154.843 152.221 154.13C152.122 153.867 152.121 153.677 152.219 153.616C152.672 153.337 151.074 151.65 149.768 151.027C148.978 150.652 148.68 150.413 148.555 150.054C148.464 149.792 148.338 149.579 148.274 149.579C148.211 149.579 147.912 149.096 147.61 148.506C147.308 147.916 147.004 147.434 146.937 147.434C146.868 147.434 146.715 147.193 146.596 146.898C146.477 146.603 146.331 146.325 146.274 146.28C146.215 146.234 145.943 145.789 145.67 145.29C144.618 143.373 142.933 140.603 142.777 140.536C142.707 140.505 142.65 140.4 142.65 140.302C142.65 140.204 142.42 139.766 142.138 139.327L141.626 138.529H136.503H131.378L131.737 138.911ZM315.602 181.855C315.897 181.892 316.38 181.892 316.675 181.855C316.97 181.819 316.728 181.789 316.138 181.789C315.549 181.789 315.307 181.819 315.602 181.855ZM143.403 191.555C142.767 192.525 141.806 192.61 136.342 192.18L135.064 192.079V194.164V196.248H139.764C144.126 196.248 144.465 196.228 144.476 195.96C144.51 195.145 144.63 194.373 144.944 192.958C145.133 192.101 145.288 191.352 145.288 191.296C145.288 190.953 143.651 191.177 143.403 191.555Z" fill="#CA6476"/>

<path class="rotate" fill-rule="evenodd" clip-rule="evenodd" d="M247.907 17.9821C246.874 18.3977 246.876 18.3789 246.876 27.6424L246.875 36.0697L247.253 36.6298L247.63 37.1898L255.209 37.2353C263.238 37.2819 263.327 37.2749 263.678 36.5051C263.805 36.226 263.861 33.4466 263.861 27.4692V18.837L263.278 18.3244L262.695 17.8129L255.486 17.8238C251.52" fill="red"/>

<path fill-rule="evenodd" clip-rule="evenodd" d="M247.907 17.8287 248.11 17.9009 247.907 17.9821ZM294.259 62.7441C293.699 62.9529 293.019 63.2814 292.749 63.4733C292.479 63.6663 292.194 63.8236 292.117 63.8236C291.475 63.8236 289.093 66.7366 288.274 68.5236C287.79 69.5804 287.519 70.2928 286.706 72.6468C286.55 73.1 286.355 73.5413 286.273 73.6274C286.067 73.8441 286.087 74.0479 286.313 74.0479C286.49 74.0479 291.168 77.1232 291.744 77.6179C292.213 78.0197 292.21 77.8584 291.722 76.5216C290.175 72.2856 291.037 68.49 294.63 63.7168C295.826 62.1276 295.836 62.1544 294.259 62.7441ZM290.412 82.2269C286.98 84.7026 286.574 84.9341 285.394 85.0776L284.557 85.1795L284.423 86.2521C284.297 87.2742 284.393 99.1529 284.537 100.187C284.575 100.459 284.658 101.313 284.722 102.084C284.843 103.537 285.09 104.148 285.842 104.855C286.589 105.557 286.997 105.508 293.64 103.925C297.08 103.106 301.378 102.087 303.193 101.66C308.398 100.437 308.396 100.44 307.65 96.3111C307.37 94.7705 307.378 90.1467 307.663 88.1173C307.759 87.4365 307.752 87.4256 307.208 87.3425C300.577 86.3243 297.323 84.6858 294.026 80.7061L293.462 80.0253L290.412 82.2269ZM152.499 155.906C152.261 158.22 150.464 159.951 148.146 160.103L147.127 160.17L146.991 161.43C146.709 164.046 146.858 173.672 147.228 176.674C147.788 181.218 146.743 180.817 158.174 180.884C169.908 180.953 169.648 181.05 168.718 176.954C167.54 171.767 167.539 163.836 168.716 158.861C169.172 156.928 169.14 156.377 168.529 155.635L168.022 155.021H160.306H152.59L152.499 155.906ZM162.263 163.013C163.097 163.444 163.236 164.904 162.509 165.587L162.082 165.987H156.998H151.912L151.486 165.587C150.753 164.899 150.925 163.474 151.803 162.97C152.338 162.664 161.659 162.701 162.263 163.013ZM162.263 168.455C163.097 168.886 163.236 170.346 162.509 171.03L162.082 171.429H156.998H151.912L151.486 171.03C150.744 170.333 150.918 168.887 151.803 168.404C152.349 168.105 161.674 168.15 162.263 168.455Z" fill="#72E1E1"/>
<path fill-rule="evenodd" clip-rule="evenodd" d="M303.605 32.4255C299.217 33.1765 292.945 35.4563 290.577 37.1591C286.743 39.9168 285.665 44.4556 288.2 47.1667C290.042 49.1348 292.969 48.9498 296.843 46.6186C297.433 46.2643 297.962 45.9467 298.019 45.9141C298.075 45.8814 298.086 46.1683 298.044 46.5523C297.976 47.1479 298.049 47.3706 298.537 48.081C299.836 49.965 300.267 51.5373 300.083 53.7092C299.963 55.1271 299.124 57.4721 298.645 57.7284C298.47 57.8214 298.328 57.9807 298.328 58.0807C298.328 58.3181 296.245 61.4083 295.836 61.7784C295.665 61.9337 295.524 62.1662 295.524 62.2949C295.524 62.4235 295.122 63.0637 294.63 63.7167C290.298 69.4725 289.86 74.0202 293.128 79.303C297.176 85.8474 305.128 88.5635 315.478 86.9358C316.793 86.729 318.574 86.4639 319.436 86.3471C321.723 86.0384 326.103 84.7154 328.342 83.6577C329.641 83.0442 331.805 81.7599 331.805 81.6026C331.805 81.5293 331.9 81.469 332.016 81.469C332.595 81.469 335.048 78.6836 335.98 76.9688C337.717 73.7728 337.802 68.8581 336.159 66.6792C335.941 66.3903 335.763 66.1133 335.763 66.0618C335.763 64.6716 330.455 62.3325 326.198 61.8456C323.169 61.4993 318.834 60.0883 318.012 59.182C317.861 59.0138 317.665 58.8762 317.578 58.8762C317.405 58.8762 316.158 57.6443 315.891 57.2099C314.529 54.9955 314.626 52.4446 316.173 49.7235C318.344 45.9061 319.513 42.2164 318.79 41.4693C318.648 41.3229 318.225 39.9524 317.98 38.8393C317.855 38.2763 317.286 37.2729 317.092 37.2729C317.021 37.2729 316.963 37.1671 316.963 37.0384C316.963 36.7139 314.8 34.7705 313.647 34.0591C311.42 32.6847 306.633 31.906 303.605 32.4255ZM120.056 67.9576C118.57 68.1793 116.457 68.7284 115.855 69.049C114.472 69.7852 112.95 70.7064 111.775 71.5188C111.075 72.0026 110.419 72.3994 110.316 72.3994C109.939 72.3994 108.288 74.2666 107.155 75.9754L106.478 76.9955L105.97 76.7363C105.297 76.3929 103.953 75.356 102.488 74.0518C102.178 73.7758 101.138 73.1663 99.5247 72.3173C99.1625 72.1263 98.6797 71.8522 98.4531 71.7088C96.8729 70.7054 94.0281 70.7687 90.7193 71.8829C89.336 72.348 88.0715 72.7289 87.9092 72.7289C87.7469 72.7289 87.3412 72.9149 87.0078 73.1415C86.6733 73.3681 86.3607 73.5531 86.3122 73.5531C86.1509 73.5531 83.8622 74.9463 83.5387 75.2412C83.3626 75.4015 83.1508 75.5321 83.0677 75.5321C82.9846 75.5321 82.6353 75.7547 82.2919 76.0268C81.9476 76.2989 81.6151 76.5216 81.5528 76.5216C81.4895 76.5216 81.1293 76.7323 80.7523 76.9906C79.3205 77.9672 78.5141 78.4511 76.926 79.2832C73.355 81.1553 68.8815 81.8232 66.4603 80.8456C65.9606 80.6447 65.4639 80.4795 65.355 80.4795C65.1087 80.4795 63.7273 79.5781 63.1257 79.0259C62.7824 78.7103 62.6577 78.6678 62.5984 78.8459C60.0544 86.359 65.5559 94.0611 73.4688 94.066C77.6216 94.068 80.3357 92.5204 84.6825 87.673C86.2756 85.8959 87.0681 85.0974 87.2374 85.0974C87.3244 85.0974 87.5124 84.8708 87.6559 84.5928C88.1289 83.6795 92.2738 81.562 92.4836 82.127C92.5103 82.2012 92.9773 82.221 93.5205 82.1715C94.0638 82.122 95.3036 82.1824 96.2752 82.3051C97.2459 82.4288 98.1048 82.5099 98.1839 82.4871C98.4234 82.4179 103.314 83.6617 103.373 83.8071C103.403 83.8823 103.588 83.9437 103.785 83.9456C104.694 83.9506 104.845 84.095 104.967 85.0687C105.9 92.5363 111.809 96.9672 120.84 96.9701C122.517 96.9711 122.771 96.8811 122.27 96.4655C121.488 95.8164 120.551 93.1379 120.551 91.5508C120.551 89.0038 122.088 87.6621 125.772 86.9922C130.701 86.0968 133.43 83.7279 133.938 79.9026C134.804 73.3869 129.708 68.111 122.549 68.111C122.176 68.111 121.871 68.0368 121.871 67.9468C121.871 67.7588 121.364 67.7617 120.056 67.9576ZM112.036 99.1559C111.131 100.105 110.673 100.797 109.665 102.743C108.006 105.945 107.653 112.68 108.892 117.503C110.091 122.166 110.354 127.089 109.625 131.273L109.41 132.51L79.7143 132.592C53.6495 132.665 49.9815 132.705 49.7104 132.922C49.5412 133.058 49.2641 133.281 49.0949 133.417C48.0006 134.3 47.9768 136.536 49.0504 137.673L49.7807 138.447L52.9262 138.501L56.0708 138.555V169.958C56.0708 187.229 56.0787 201.416 56.0886 201.485C56.0975 201.553 56.2479 201.886 56.421 202.227L56.7367 202.845H28.3683H0V203.422V204H197.896H395.791V203.422V202.845H358.604H321.415V200.042V197.238H320.848C320.536 197.238 320.235 197.312 320.178 197.403C320.117 197.502 318.998 197.568 317.375 197.568C315.752 197.568 314.633 197.502 314.572 197.403C314.432 197.179 310.292 197.192 309.459 197.421C306.982 198.1 305.093 199.87 304.42 202.145L304.212 202.845H290.55H276.889V200.042V197.238H276.344C276.046 197.238 275.723 197.316 275.628 197.411C275.513 197.526 274.519 197.551 272.668 197.486C271.135 197.432 268.729 197.372 267.324 197.355L264.768 197.321L263.531 197.931C261.715 198.826 260.298 200.368 259.978 201.793C259.717 202.961 261.681 202.845 242.081 202.845C232.382 202.845 224.446 202.805 224.446 202.754C224.446 202.705 224.577 202.427 224.735 202.136C225.006 201.64 225.029 199.734 225.106 170.687C225.186 140.52 225.196 139.751 225.508 139.148L225.827 138.529L228.394 138.528C231.578 138.527 232.016 138.417 232.773 137.426C233.847 136.019 233.486 134.005 231.984 133.032L231.307 132.592H206.799H182.291L181.807 133.102C180.768 134.194 183.354 134.109 150.637 134.121C117.78 134.133 120.36 134.219 119.898 133.103C119.635 132.467 119.764 131.939 120.324 131.381L120.761 130.943H123.46C124.944 130.943 126.156 130.887 126.152 130.819C126.148 130.752 125.225 129.397 124.1 127.81C122.976 126.223 122.108 124.874 122.17 124.813C122.292 124.694 128.772 121.008 129.869 120.433C130.232 120.243 130.799 119.957 131.13 119.797C132.488 119.143 132.605 117.1 131.36 115.792C131.22 115.645 130.863 115.213 130.57 114.834C130.275 114.455 129.868 113.936 129.665 113.68C129.354 113.288 129.295 113.009 129.291 111.895C129.272 107.32 126.7 102.841 123.654 102.083C123.103 101.945 121.511 101.406 119.232 100.584C118.552 100.338 117.587 100.005 117.088 99.8426C116.589 99.6803 115.996 99.4508 115.769 99.332C115.542 99.2143 115.246 99.1163 115.109 99.1163C114.973 99.1153 114.472 98.9669 113.995 98.7848C112.835 98.3445 112.804 98.3505 112.036 99.1559ZM306.903 100.667C306.677 100.788 305.007 101.235 303.193 101.66C301.378 102.087 297.08 103.106 293.641 103.925C286.598 105.603 286.544 105.607 285.622 104.581L285.037 103.931L284.741 105.357C284.349 107.255 283.627 110.559 283.004 113.31C282.725 114.541 282.496 115.701 282.496 115.886C282.496 116.071 281.761 117.698 280.861 119.501C277.947 125.346 276.561 128.451 274.356 134.077C273.102 137.274 269.783 147.691 269.794 148.395C269.796 148.516 269.58 149.407 269.315 150.374C268.626 152.886 266.83 160.84 266.83 161.38C266.83 161.539 266.609 162.751 266.341 164.075C265.604 167.701 264.851 171.879 264.85 172.34C264.849 172.564 264.664 173.71 264.437 174.886C263.683 178.803 263.961 179.417 266.83 180.171C267.328 180.302 267.758 180.346 267.785 180.267C267.812 180.189 268.368 180.255 269.022 180.413C269.675 180.571 271.286 180.939 272.601 181.23C273.916 181.521 275.241 181.881 275.544 182.03C277.539 183.007 278.835 181.566 279.676 177.433C279.907 176.3 280.489 174.337 282.512 167.884C283.066 166.115 283.723 164.111 283.972 163.431C284.222 162.751 284.548 161.841 284.698 161.411C284.847 160.98 285.093 160.275 285.244 159.845C285.394 159.413 285.68 158.69 285.88 158.237C286.08 157.782 286.296 157.226 286.359 157C286.495 156.518 287.275 154.578 287.956 153.028C288.218 152.431 288.433 151.897 288.433 151.841C288.433 151.783 288.647 151.27 288.908 150.699C289.168 150.128 289.92 148.473 290.578 147.022C292.119 143.627 292.982 141.815 295.381 136.949C296.458 134.764 297.338 132.902 297.338 132.81C297.338 132.406 298.516 131.438 299.006 131.438C300.425 131.438 300.398 131.361 301.792 139.437C302.074 141.069 302.518 143.629 302.78 145.126C303.043 146.622 303.483 149.164 303.761 150.774C304.038 152.384 304.487 154.981 304.758 156.546C305.03 158.111 305.476 160.69 305.749 162.277C306.022 163.864 306.463 166.425 306.73 167.966C306.998 169.508 307.448 172.105 307.73 173.738C309.043 181.329 309.003 181.197 310.084 181.719C310.844 182.087 312.318 182.193 312.61 181.901C312.714 181.797 314.776 181.732 318.126 181.727C325.99 181.714 326.046 181.678 325.318 177.146C325.089 175.725 324.669 173.005 324.384 171.1C323.097 162.512 322.844 160.866 322.391 158.154C322.127 156.566 321.91 155.082 321.911 154.856C321.911 154.629 321.684 153.107 321.407 151.475C321.13 149.842 320.683 147.17 320.412 145.538C319.518 140.153 318.931 136.83 318.438 134.39C318.171 133.066 317.954 131.841 317.956 131.669C317.958 131.497 317.731 130.317 317.453 129.047C317.175 127.777 316.722 125.699 316.445 124.429C315.884 121.848 315.551 120.491 315.212 119.412C315.086 119.01 314.984 118.531 314.984 118.348C314.984 118.165 314.756 117.268 314.477 116.357C314.199 115.446 313.783 114.068 313.554 113.298C311.887 107.69 309.251 101.906 307.825 100.726C307.415 100.388 307.426 100.389 306.903 100.667ZM107.409 139.23C107.173 139.914 106.582 141.003 106.355 141.168C104.846 142.266 104.503 148.073 105.81 150.388C105.981 150.691 106.214 151.104 106.325 151.307C107.76 153.898 113.862 156.739 125.087 160.042C125.812 160.256 127.63 160.8 129.127 161.253C132.223 162.189 133.906 162.667 140.308 164.425C142.169 164.936 142.651 165.546 142.086 166.675C141.958 166.931 141.393 168.181 140.832 169.45C140.27 170.72 139.597 172.217 139.334 172.776C139.071 173.335 138.856 173.847 138.856 173.914C138.856 173.98 138.641 174.487 138.378 175.041C137.813 176.227 137.307 177.344 136.464 179.263C136.125 180.034 135.68 181.035 135.474 181.489C135.269 181.943 134.824 182.944 134.486 183.716C133.847 185.174 133.327 186.321 132.449 188.212C131.721 189.779 131.748 190.459 132.573 191.344L133.215 192.032L135.112 192.065C136.156 192.082 138.119 192.185 139.476 192.293C142.214 192.511 142.61 192.431 143.271 191.524C143.568 191.114 143.678 191.08 144.582 191.117C145.66 191.162 146.472 190.706 146.695 189.934C146.752 189.734 146.972 189.198 147.184 188.745C147.396 188.292 148.027 186.882 148.587 185.612C149.147 184.342 149.822 182.846 150.086 182.287C150.77 180.837 150.746 180.747 149.671 180.747C148.585 180.747 147.855 180.232 147.611 179.292C146.975 176.838 146.605 166.512 146.982 161.74C147.085 160.432 147.067 160.132 146.885 160.132C145.194 160.132 143.169 157.747 143.054 155.618C142.989 154.428 136.879 145.43 135.613 144.659C134.901 144.226 134.273 143.886 132.837 143.159C132.293 142.883 131.736 142.587 131.601 142.5C131.464 142.413 131.165 142.303 130.935 142.256C130.501 142.166 130.504 142.175 129.825 138.901L129.748 138.531L174.29 138.53L218.832 138.528L218.661 138.977C218.568 139.224 218.428 139.502 218.353 139.596C218.277 139.69 217.974 140.211 217.68 140.756C217.158 141.723 216.604 142.727 215.68 144.384C215.426 144.837 215.042 145.542 214.826 145.95C214.609 146.358 214.05 147.383 213.585 148.226C213.119 149.07 212.738 149.799 212.738 149.846C212.738 149.892 212.515 150.255 212.243 150.65C211.971 151.046 211.748 151.462 211.748 151.574C211.748 151.686 211.644 151.896 211.518 152.04C211.391 152.182 210.861 153.116 210.34 154.113C209.819 155.111 209.303 156.039 209.195 156.175C209.088 156.311 208.85 156.719 208.667 157.082C208.485 157.445 208.15 158.075 207.922 158.484C207.693 158.892 207.285 159.634 207.012 160.132C206.469 161.125 205.677 162.558 204.961 163.843C204.708 164.297 204.238 165.15 203.917 165.74C203.596 166.33 203.081 167.257 202.772 167.801C202.162 168.874 201.929 169.299 200.905 171.185C200.535 171.867 200.044 172.757 199.815 173.164C199.586 173.571 199.219 174.238 198.999 174.645C197.764 176.939 196.209 179.695 196.073 179.832C195.987 179.918 195.917 180.097 195.917 180.231C195.917 180.364 195.815 180.591 195.689 180.734C195.564 180.877 195.182 181.514 194.841 182.148C194.195 183.351 193.717 184.217 192.93 185.612C192.675 186.066 192.347 186.687 192.202 186.993C192.057 187.299 191.768 187.818 191.561 188.147C191.353 188.476 190.857 189.353 190.459 190.095C190.059 190.836 189.51 191.847 189.238 192.341C188.132 194.346 186.637 197.044 186.159 197.898C185.098 199.79 185.032 199.957 185.032 200.788C185.032 201.28 185.16 201.872 185.344 202.233L185.657 202.845H170.111H154.565L154.459 202.173C153.992 199.256 150.954 196.776 147.814 196.749C147.434 196.746 146.915 196.663 146.659 196.565C146.362 196.45 143.999 196.376 140.053 196.359L133.909 196.332V199.838V203.345L119.37 203.301C107.915 203.267 104.815 203.213 104.761 203.051C104.71 202.897 103.97 202.845 101.816 202.845H98.9399L99.2328 202.399C99.6741 201.725 99.6385 199.815 99.1705 199.053C98.9755 198.735 98.5748 198.029 98.2809 197.485C97.987 196.941 97.5606 196.162 97.332 195.754C97.1044 195.346 96.769 194.715 96.5869 194.353C96.4039 193.989 96.1664 193.581 96.0585 193.445C95.9507 193.309 95.4352 192.382 94.9137 191.384C94.3932 190.386 93.8629 189.453 93.7362 189.309C93.6096 189.166 93.5057 188.957 93.5057 188.844C93.5057 188.731 93.2831 188.316 93.011 187.921C92.7388 187.525 92.5162 187.163 92.5162 187.117C92.5162 187.038 91.3941 184.958 90.4591 183.303C89.8535 182.23 89.3044 181.232 88.6444 180.005C88.303 179.37 87.9211 178.734 87.7964 178.59C87.6707 178.447 87.5688 178.238 87.5688 178.125C87.5688 178.012 87.3462 177.597 87.0741 177.201C86.802 176.806 86.5793 176.37 86.5793 176.233C86.5793 176.096 86.5032 175.936 86.4101 175.879C86.3171 175.822 85.9827 175.279 85.6661 174.674C85.3494 174.068 84.8359 173.128 84.5242 172.584C84.2135 172.04 83.8058 171.298 83.6188 170.935C83.4318 170.571 83.0875 169.941 82.854 169.533C82.6204 169.125 82.1752 168.309 81.8635 167.719C81.5518 167.129 81.0442 166.202 80.7345 165.658C80.4238 165.114 79.9904 164.334 79.7688 163.926C79.2483 162.964 78.7486 162.059 77.674 160.132C77.1932 159.271 76.2096 157.49 75.4883 156.175C74.7679 154.86 74.01 153.487 73.8042 153.124C73.4381 152.476 72.9285 151.546 71.7748 149.413C71.4552 148.824 71.0386 148.068 70.8476 147.733C70.6567 147.4 70.0175 146.256 69.4287 145.192C68.3927 143.324 67.9593 142.537 66.8026 140.426C66.5038 139.882 66.205 139.362 66.1377 139.271C65.5519 138.477 64.0994 138.529 86.7297 138.529H107.649L107.409 139.23ZM63.5008 147.022C64.1499 148.201 64.8821 149.537 65.1275 149.99C65.3738 150.444 65.8211 151.261 66.1219 151.805C66.4227 152.349 66.8927 153.202 67.1658 153.701C67.4389 154.2 67.8337 154.905 68.0415 155.268C68.2503 155.63 68.6005 156.262 68.8202 156.669C69.0399 157.078 69.5999 158.102 70.0659 158.946C70.532 159.789 70.9129 160.52 70.9129 160.57C70.9129 160.618 71.0525 160.856 71.2236 161.097C71.3938 161.338 71.7748 161.98 72.0696 162.524C72.7999 163.871 73.5163 165.18 74.01 166.069C74.2366 166.478 74.6235 167.183 74.8708 167.637C75.1172 168.09 75.5051 168.794 75.7317 169.203C75.9583 169.611 76.4224 170.465 76.7637 171.1C77.1051 171.734 77.487 172.371 77.6117 172.514C77.7364 172.657 77.8393 172.884 77.8393 173.017C77.8393 173.151 77.9095 173.33 77.9956 173.416C78.1312 173.553 79.6866 176.309 80.9205 178.603C81.1402 179.011 81.4905 179.642 81.6992 180.005C82.1405 180.774 82.942 182.23 83.696 183.633C83.9879 184.177 84.4569 185.031 84.7389 185.529C85.0209 186.028 85.7007 187.253 86.2508 188.25C86.8 189.248 87.3175 190.176 87.4006 190.312C87.4837 190.448 87.9745 191.339 88.492 192.291C89.0085 193.243 89.6161 194.357 89.8417 194.764C90.0673 195.173 90.4314 195.841 90.652 196.248C90.8717 196.657 91.2596 197.362 91.5129 197.816C92.4123 199.424 92.8883 200.299 93.3058 201.114C93.5393 201.567 93.8698 202.143 94.041 202.392L94.3527 202.845H77.9234H61.4941L61.7504 202.479C61.9809 202.151 62.0076 199.114 62.0076 173.339C62.0076 155.183 62.065 144.622 62.164 144.721C62.2501 144.807 62.8517 145.843 63.5008 147.022ZM219.293 202.134C219.407 202.332 219.499 202.573 219.499 202.669C219.499 202.793 215.119 202.845 204.884 202.845C193.211 202.845 190.303 202.804 190.439 202.639C190.624 202.413 191.325 201.161 191.846 200.124C192.029 199.761 192.267 199.353 192.374 199.217C192.482 199.081 192.998 198.153 193.519 197.156C194.04 196.158 194.57 195.224 194.697 195.082C194.823 194.938 194.927 194.722 194.927 194.6C194.927 194.478 195.03 194.262 195.157 194.118C195.282 193.975 195.775 193.116 196.252 192.208C196.729 191.301 197.185 190.473 197.267 190.368C197.349 190.263 197.626 189.78 197.881 189.296C198.136 188.812 198.53 188.081 198.756 187.674C198.983 187.265 199.402 186.504 199.687 185.983C199.972 185.461 200.441 184.608 200.73 184.087C201.018 183.565 201.446 182.794 201.678 182.375C201.911 181.955 202.62 180.67 203.256 179.518C203.89 178.366 204.603 177.076 204.84 176.653C206.004 174.565 206.873 172.986 207.782 171.312C208.319 170.321 210.942 165.587 211.555 164.503C211.812 164.05 212.343 163.085 212.737 162.359C213.755 160.48 214.022 159.991 214.54 159.061C215.527 157.29 215.847 156.711 216.457 155.598C216.806 154.962 217.294 154.072 217.544 153.619C217.793 153.166 218.206 152.386 218.46 151.887L218.922 150.98L219.004 176.377C219.069 196.269 219.132 201.852 219.293 202.134ZM152.273 153.99C152.579 155.086 152.495 155.021 153.587 155.017L154.606 155.013L154.193 154.69C153.8 154.382 152.488 153.701 152.288 153.701C152.235 153.701 152.228 153.831 152.273 153.99Z" fill="#5C14EB"/>
<path fill-rule="evenodd" clip-rule="evenodd" d="M122.161 68.0635C122.367 68.1021 122.664 68.1011 122.821 68.0595C122.978 68.018 122.811 67.9863 122.448 67.9883C122.085 67.9903 121.956 68.0239 122.161 68.0635ZM113.914 70.0197C113.297 70.3542 113.335 70.4937 113.955 70.1731C114.228 70.0316 114.45 69.8822 114.45 69.8386C114.45 69.7328 114.432 69.7387 113.914 70.0197ZM131.178 84.8085L130.693 85.3447L131.23 84.8599C131.525 84.5937 131.766 84.3533 131.766 84.3246C131.766 84.197 131.629 84.3088 131.178 84.8085ZM125.251 87.0763C124.81 87.1881 124.801 87.202 125.169 87.202C125.396 87.202 125.804 87.1456 126.077 87.0763C126.518 86.9645 126.527 86.9507 126.159 86.9507C125.932 86.9507 125.523 87.0071 125.251 87.0763ZM122.695 87.8936C122.378 88.0628 121.896 88.4487 121.624 88.7515L121.129 89.3027L121.706 88.7852C122.024 88.5002 122.58 88.1133 122.943 87.9263C123.306 87.7393 123.529 87.5859 123.438 87.5859C123.347 87.5859 123.013 87.7244 122.695 87.8936ZM120.735 90.0606C120.634 90.3515 120.556 90.7077 120.562 90.8532C120.569 90.9976 120.677 90.7859 120.803 90.3812C121.067 89.5342 121.011 89.27 120.735 90.0606ZM120.739 93.1784C120.739 93.314 120.804 93.5742 120.882 93.7553C120.971 93.9631 121.023 93.9938 121.023 93.8374C121.023 93.7019 120.959 93.4416 120.882 93.2606C120.792 93.0528 120.739 93.0221 120.739 93.1784ZM121.7 95.6403C121.882 95.9975 122.102 96.3329 122.189 96.3863C122.276 96.4408 122.159 96.1489 121.93 95.7382C121.418 94.822 121.245 94.7487 121.7 95.6403ZM130.025 120.316C129.71 120.568 129.71 120.569 130.034 120.42C130.216 120.337 130.475 120.227 130.611 120.176C130.825 120.097 130.824 120.083 130.601 120.071C130.46 120.065 130.201 120.174 130.025 120.316ZM123.149 124.193C122.809 124.373 122.53 124.557 122.53 124.601C122.53 124.647 122.827 124.532 123.19 124.347C123.553 124.162 123.85 123.975 123.85 123.931C123.85 123.824 123.848 123.824 123.149 124.193ZM123.606 127.133C123.938 127.596 124.244 127.974 124.286 127.974C124.399 127.974 123.376 126.523 123.176 126.399C123.079 126.34 123.273 126.67 123.606 127.133ZM125.815 130.226C126.004 130.512 126.159 130.79 126.159 130.845C126.159 130.899 124.939 130.943 123.447 130.943C121.956 130.943 120.702 130.999 120.659 131.067C120.617 131.135 121.874 131.168 123.453 131.142C126.582 131.089 126.641 131.067 125.896 130.201L125.472 129.706L125.815 130.226ZM181.722 133.02C180.942 133.853 181.368 133.824 168.541 133.913L156.42 133.998L168.426 134.037C178.495 134.071 180.503 134.039 180.877 133.844C181.293 133.626 182.392 132.592 182.207 132.592C182.16 132.592 181.941 132.784 181.722 133.02ZM120.438 133.788C120.731 134.057 121.412 134.074 130.423 134.038L140.093 133.999L130.348 133.914C124.264 133.861 120.513 133.767 120.363 133.664C120.232 133.574 120.265 133.629 120.438 133.788ZM144.175 134.2C146.42 134.226 150.094 134.226 152.338 134.2C154.583 134.175 152.747 134.153 148.257 134.153C143.767 134.153 141.931 134.175 144.175 134.2ZM137.184 146.403C137.391 146.698 137.595 146.94 137.638 146.94C137.78 146.94 137.393 146.337 137.099 146.102C136.894 145.935 136.917 146.024 137.184 146.403ZM138.032 147.6C138.226 147.872 138.422 148.094 138.467 148.094C138.512 148.094 138.391 147.872 138.198 147.6C138.004 147.328 137.808 147.105 137.762 147.105C137.717 147.105 137.838 147.328 138.032 147.6ZM139.187 149.248C139.38 149.52 139.576 149.743 139.622 149.743C139.667 149.743 139.545 149.52 139.351 149.248C139.158 148.976 138.963 148.753 138.917 148.753C138.871 148.753 138.993 148.976 139.187 149.248ZM140.177 150.65C140.457 151.058 140.724 151.392 140.769 151.392C140.815 151.392 140.622 151.058 140.341 150.65C140.061 150.242 139.794 149.908 139.748 149.908C139.703 149.908 139.896 150.242 140.177 150.65ZM141.166 152.052C141.359 152.325 141.555 152.547 141.6 152.547C141.646 152.547 141.524 152.325 141.33 152.052C141.137 151.78 140.941 151.558 140.896 151.558C140.85 151.558 140.972 151.78 141.166 152.052ZM142.32 153.701C142.514 153.973 142.71 154.196 142.755 154.196C142.801 154.196 142.679 153.973 142.485 153.701C142.291 153.429 142.095 153.206 142.051 153.206C142.005 153.206 142.127 153.429 142.32 153.701ZM152.429 155.516C152.429 156.014 152.46 156.218 152.498 155.969C152.536 155.719 152.536 155.311 152.498 155.061C152.46 154.812 152.429 155.016 152.429 155.516ZM143.021 155.432C143.023 155.796 143.057 155.924 143.097 155.719C143.136 155.515 143.134 155.218 143.094 155.059C143.052 154.902 143.019 155.07 143.021 155.432ZM152.167 156.836C151.964 157.637 151.071 158.807 150.283 159.301C149.849 159.573 149.551 159.798 149.621 159.8C150.414 159.82 152.563 157.301 152.335 156.619C152.3 156.512 152.224 156.61 152.167 156.836ZM143.317 157.095C143.294 157.634 144.61 159.137 145.453 159.536C145.589 159.6 145.516 159.521 145.288 159.359C144.645 158.9 143.976 158.151 143.636 157.506C143.465 157.182 143.321 156.997 143.317 157.095ZM116.676 157.417C116.949 157.542 117.282 157.642 117.419 157.639C117.554 157.636 117.406 157.534 117.088 157.411C116.335 157.121 116.039 157.126 116.676 157.417ZM119.562 158.401C119.879 158.524 120.25 158.624 120.387 158.624C120.523 158.624 120.374 158.524 120.057 158.401C119.74 158.279 119.369 158.179 119.232 158.179C119.096 158.179 119.245 158.279 119.562 158.401ZM147.144 160.088C147.484 160.124 148.041 160.124 148.38 160.088C148.721 160.052 148.443 160.024 147.762 160.024C147.082 160.024 146.804 160.052 147.144 160.088ZM125.417 160.276C125.598 160.355 126.006 160.467 126.324 160.524C126.72 160.597 126.797 160.584 126.571 160.485C126.389 160.406 125.982 160.294 125.664 160.235C125.268 160.164 125.19 160.176 125.417 160.276ZM128.714 161.287C128.897 161.365 129.156 161.429 129.292 161.429C129.448 161.429 129.417 161.376 129.209 161.287C129.028 161.209 128.768 161.146 128.632 161.146C128.476 161.146 128.507 161.198 128.714 161.287ZM132.672 162.442C132.854 162.519 133.114 162.583 133.25 162.583C133.406 162.583 133.375 162.531 133.167 162.442C132.986 162.364 132.726 162.299 132.59 162.299C132.434 162.299 132.465 162.352 132.672 162.442ZM135.641 163.266C135.823 163.344 136.082 163.408 136.219 163.408C136.374 163.408 136.343 163.355 136.136 163.266C135.954 163.188 135.694 163.125 135.559 163.125C135.402 163.125 135.433 163.177 135.641 163.266ZM139.269 164.256C139.45 164.334 139.711 164.397 139.846 164.397C140.002 164.397 139.972 164.345 139.764 164.256C139.583 164.177 139.323 164.114 139.187 164.114C139.031 164.114 139.061 164.167 139.269 164.256ZM319.478 181.685C319.636 181.727 319.897 181.727 320.055 181.685C320.214 181.644 320.084 181.61 319.767 181.61C319.449 181.61 319.32 181.644 319.478 181.685ZM313.298 181.857C313.686 181.892 314.279 181.892 314.618 181.856C314.955 181.821 314.637 181.792 313.912 181.793C313.187 181.793 312.91 181.823 313.298 181.857ZM143.217 191.577C142.963 191.91 142.839 192.13 142.942 192.067C143.153 191.936 143.867 190.972 143.753 190.972C143.712 190.972 143.471 191.244 143.217 191.577ZM137.084 192.244C137.334 192.282 137.741 192.282 137.991 192.244C138.24 192.206 138.036 192.176 137.538 192.176C137.039 192.176 136.835 192.206 137.084 192.244ZM139.722 192.404C139.882 192.446 140.141 192.446 140.3 192.404C140.459 192.363 140.329 192.329 140.011 192.329C139.694 192.329 139.564 192.363 139.722 192.404ZM137.506 196.372C138.804 196.4 140.882 196.4 142.124 196.372C143.366 196.344 142.304 196.322 139.764 196.322C137.224 196.322 136.209 196.344 137.506 196.372ZM272.849 197.403L270.046 197.498L272.797 197.533C274.494 197.555 275.59 197.505 275.652 197.403C275.708 197.312 275.731 197.254 275.703 197.274C275.676 197.292 274.39 197.351 272.849 197.403ZM316.023 197.526C316.821 197.557 318.083 197.557 318.827 197.526C319.57 197.495 318.917 197.47 317.375 197.47C315.834 197.47 315.225 197.496 316.023 197.526ZM105.585 203.294C105.835 203.331 106.243 203.331 106.493 203.294C106.742 203.256 106.538 203.224 106.04 203.224C105.54 203.224 105.336 203.256 105.585 203.294ZM118.955 203.298C121.752 203.324 126.278 203.324 129.015 203.298C131.752 203.274 129.466 203.253 123.932 203.253C118.399 203.253 116.16 203.274 118.955 203.298Z" fill="#827C86"/>
</svg>
