<svg width="456" height="135" viewBox="0 0 456 135" fill="none" xmlns="http://www.w3.org/2000/svg">
<path d="M113.232 67.6755H120.789C120.789 67.6755 120.789 86.49 120.576 86.49C120.361 86.49 113.232 86.49 113.232 86.49V67.6755Z" fill="#7A45FD"/>
<path d="M76.1477 1.82471C40.1678 1.82471 16.3037 29.56 16.3037 67.8783C16.3037 104.737 36.8636 132.838 73.7612 132.838C107.171 132.838 124.243 112.949 126.629 90.1399L126.813 88.315H111.026L110.659 90.1399C106.987 108.204 95.7892 120.43 74.6789 120.43C49.7135 120.43 33.9265 98.1682 33.9265 67.1486C33.9265 36.6762 49.8971 14.2326 75.7805 14.2326C96.8907 14.2326 108.089 26.458 111.76 44.5226L112.127 46.347H127.914L127.731 44.5226C125.161 19.8891 108.272 1.82471 76.1477 1.82471Z" fill="#9C75FD"/>
<path d="M126.629 90.1399L128.455 90.3283L128.455 90.321L126.629 90.1399ZM126.813 88.315L128.639 88.4966L128.841 86.4901H126.813V88.315ZM111.025 88.315V86.4901H109.521L109.226 87.9574L111.025 88.315ZM110.658 90.1399L112.458 90.5011V90.4974L110.658 90.1399ZM111.76 44.5226L113.56 44.1646V44.1609L111.76 44.5226ZM112.127 46.347L110.327 46.7045L110.623 48.1719H112.127V46.347ZM127.914 46.347V48.1719H129.942L129.741 46.1653L127.914 46.347ZM127.73 44.5226L129.557 44.341V44.3341L127.73 44.5226ZM76.1474 0C57.6519 0 42.1844 7.14304 31.3598 19.2712C20.552 31.3806 14.4678 48.3478 14.4678 67.8783H18.1392C18.1392 49.0907 23.987 33.031 34.1062 21.6931C44.2086 10.374 58.6631 3.64938 76.1474 3.64938V0ZM14.4678 67.8783C14.4678 86.6282 19.6966 103.314 29.7853 115.348C39.9067 127.421 54.8 134.662 73.761 134.662V131.013C55.8239 131.013 41.9887 124.204 32.6058 113.012C23.1902 101.781 18.1392 85.9876 18.1392 67.8783H14.4678ZM73.761 134.662C90.8449 134.662 103.926 129.569 113.057 121.397C122.178 113.236 127.221 102.124 128.455 90.3283L124.803 89.9509C123.651 100.964 118.964 111.201 110.6 118.686C102.246 126.161 90.0867 131.013 73.761 131.013V134.662ZM128.455 90.321L128.639 88.4966L124.986 88.1333L124.802 89.9582L128.455 90.321ZM126.813 86.4901H111.025V90.1399H126.813V86.4901ZM109.226 87.9574L108.859 89.7818L112.458 90.4974L112.825 88.6725L109.226 87.9574ZM108.859 89.7781C107.077 98.5467 103.504 105.725 97.9757 110.707C92.47 115.668 84.8579 118.605 74.6787 118.605V122.254C85.6102 122.254 94.1517 119.078 100.442 113.411C106.708 107.764 110.568 99.7967 112.458 90.5011L108.859 89.7781ZM74.6787 118.605C62.8104 118.605 53.1553 113.341 46.4132 104.332C39.6381 95.2796 35.7619 82.372 35.7619 67.1485H32.0905C32.0905 82.9447 36.1077 96.6777 43.4676 106.511C50.8604 116.388 61.5816 122.254 74.6787 122.254V118.605ZM35.7619 67.1485C35.7619 52.2091 39.6787 39.3986 46.6065 30.37C53.5014 21.3846 63.4333 16.0573 75.7803 16.0573V12.4079C62.2435 12.4079 51.2488 18.3023 43.6873 28.1569C36.1589 37.9682 32.0905 51.6159 32.0905 67.1485H35.7619ZM75.7803 16.0573C85.9589 16.0573 93.5716 18.9944 99.0767 23.9552C104.605 28.9369 108.178 36.1148 109.961 44.8838L113.56 44.1609C111.67 34.8656 107.809 26.8985 101.543 21.2515C95.2532 15.5835 86.7118 12.4079 75.7803 12.4079V16.0573ZM109.96 44.8801L110.327 46.7045L113.927 45.9895L113.56 44.1646L109.96 44.8801ZM112.127 48.1719H127.914V44.5226H112.127V48.1719ZM129.741 46.1653L129.557 44.341L125.904 44.7038L126.087 46.5286L129.741 46.1653ZM129.557 44.3341C128.233 31.6521 123.204 20.5262 114.244 12.5749C105.281 4.62131 92.5609 0 76.1474 0V3.64938C91.8582 3.64938 103.644 8.06027 111.799 15.2972C119.957 22.5365 124.658 32.7594 125.905 44.7106L129.557 44.3341Z" fill="#9C75FD"/>
<path d="M67.88 1.82471C31.9002 1.82471 8.03613 29.56 8.03613 67.8783C8.03613 104.737 28.596 132.838 65.4936 132.838C98.9032 132.838 115.975 112.949 118.361 90.1399L118.545 88.315H102.758L102.391 90.1399C98.7194 108.204 87.5215 120.43 66.4113 120.43C41.4459 120.43 25.6588 98.1682 25.6588 67.1486C25.6588 36.6762 41.6295 14.2326 67.5129 14.2326C88.6231 14.2326 99.8209 26.458 103.492 44.5226L103.859 46.347H119.646L119.463 44.5226C116.893 19.8891 100.004 1.82471 67.88 1.82471Z" fill="#7A45FD"/>
<path d="M118.361 90.1399L120.188 90.3283V90.321L118.361 90.1399ZM118.545 88.315L120.371 88.4966L120.573 86.4901H118.545V88.315ZM102.758 88.315V86.4901H101.253L100.958 87.9574L102.758 88.315ZM102.391 90.1399L104.191 90.5011L104.192 90.4974L102.391 90.1399ZM103.492 44.5226L105.293 44.1646L105.292 44.1609L103.492 44.5226ZM103.859 46.347L102.059 46.7045L102.355 48.1719H103.859V46.347ZM119.646 46.347V48.1719H121.674L121.473 46.1653L119.646 46.347ZM119.462 44.5226L121.289 44.341V44.3341L119.462 44.5226ZM67.88 0C49.3844 0 33.9168 7.14304 23.0922 19.2712C12.2845 31.3806 6.2002 48.3478 6.2002 67.8783H9.87162C9.87162 49.0907 15.7193 33.031 25.8386 21.6931C35.9411 10.374 50.3954 3.64938 67.88 3.64938V0ZM6.2002 67.8783C6.2002 86.6282 11.429 103.314 21.5178 115.348C31.6392 127.421 46.5325 134.662 65.4935 134.662V131.013C47.5565 131.013 33.7212 124.204 24.3382 113.012C14.9227 101.781 9.87162 85.9876 9.87162 67.8783H6.2002ZM65.4935 134.662C82.5774 134.662 95.6582 129.569 104.79 121.397C113.911 113.236 118.953 102.124 120.188 90.3283L116.535 89.9509C115.384 100.964 110.696 111.201 102.332 118.686C93.9792 126.161 81.8193 131.013 65.4935 131.013V134.662ZM120.188 90.321L120.371 88.4966L116.718 88.1333L116.535 89.9582L120.188 90.321ZM118.545 86.4901H102.758V90.1399H118.545V86.4901ZM100.958 87.9574L100.591 89.7818L104.192 90.4974L104.558 88.6725L100.958 87.9574ZM100.592 89.7781C98.8091 98.5467 95.2361 105.725 89.7077 110.707C84.2031 115.668 76.5905 118.605 66.4112 118.605V122.254C77.3428 122.254 85.8842 119.078 92.1739 113.411C98.4403 107.764 102.301 99.7967 104.191 90.5011L100.592 89.7781ZM66.4112 118.605C54.543 118.605 44.8877 113.341 38.1457 104.332C31.3705 95.2796 27.4943 82.372 27.4943 67.1485H23.823C23.823 82.9447 27.8402 96.6777 35.2 106.511C42.5929 116.388 53.3141 122.254 66.4112 122.254V118.605ZM27.4943 67.1485C27.4943 52.2091 31.4112 39.3986 38.3389 30.37C45.2336 21.3846 55.1659 16.0573 67.5128 16.0573V12.4079C53.9761 12.4079 42.9812 18.3023 35.4197 28.1569C27.8913 37.9682 23.823 51.6159 23.823 67.1485H27.4943ZM67.5128 16.0573C77.692 16.0573 85.3046 18.9944 90.8092 23.9552C96.3376 28.9369 99.9107 36.1148 101.693 44.8838L105.292 44.1609C103.402 34.8656 99.5414 26.8985 93.2755 21.2515C86.9852 15.5835 78.4438 12.4079 67.5128 12.4079V16.0573ZM101.692 44.8801L102.059 46.7045L105.66 45.9895L105.293 44.1646L101.692 44.8801ZM103.859 48.1719H119.646V44.5226H103.859V48.1719ZM121.473 46.1653L121.289 44.341L117.636 44.7038L117.82 46.5286L121.473 46.1653ZM121.289 44.3341C119.966 31.6521 114.937 20.5262 105.977 12.5749C97.0139 4.62131 84.2939 0 67.88 0V3.64938C83.5907 3.64938 95.3766 8.06027 103.531 15.2972C111.689 22.5365 116.391 32.7594 117.637 44.7106L121.289 44.3341Z" fill="#7A45FD"/>
<path d="M66.4524 69.5205V82.2938H96.0073C96.0073 104.737 80.771 120.43 60.2113 120.43C35.2457 120.43 19.4587 98.1682 19.4587 67.1486C19.4587 36.6762 35.4293 14.2326 61.3128 14.2326C82.4231 14.2326 93.6209 26.458 97.2922 44.5226L97.6594 46.347H113.447L113.263 44.5226C110.693 19.8891 93.8047 1.82471 61.68 1.82471C25.7001 1.82471 1.83594 29.56 1.83594 67.8783C1.83594 104.737 22.3958 132.838 59.2936 132.838C73.7955 132.838 84.9934 128.093 92.1527 120.064L97.8433 108.387V130.283H111.795V69.5205H66.4524Z" fill="#5E17EB"/>
<path d="M66.4526 69.5205V67.6961H64.6166V69.5205H66.4526ZM66.4526 82.2932H64.6166V84.1181H66.4526V82.2932ZM96.007 82.2932H97.8429V80.4688H96.007V82.2932ZM97.2924 44.5226L99.0919 44.1646L99.0913 44.1609L97.2924 44.5226ZM97.659 46.347L95.8596 46.7045L96.1539 48.1719H97.659V46.347ZM113.446 46.347V48.1719H115.475L115.273 46.1653L113.446 46.347ZM113.263 44.5226L115.09 44.341L115.088 44.3341L113.263 44.5226ZM92.1523 120.064L93.526 121.275L93.694 121.087L93.8044 120.86L92.1523 120.064ZM97.8429 108.387H99.6788L96.1908 107.591L97.8429 108.387ZM97.8429 130.283H96.007V132.107H97.8429V130.283ZM111.794 130.283V132.107H113.63V130.283H111.794ZM111.794 69.5205H113.63V67.6961H111.794V69.5205ZM64.6166 69.5205V82.2932H68.2879V69.5205H64.6166ZM66.4526 84.1181H96.007V80.4688H66.4526V84.1181ZM94.1716 82.2932C94.1716 103.833 79.6559 118.605 60.2109 118.605V122.254C81.8859 122.254 97.8429 105.641 97.8429 82.2932H94.1716ZM60.2109 118.605C48.3428 118.605 38.6875 113.341 31.9454 104.332C25.1703 95.2796 21.2941 82.372 21.2941 67.1485H17.6227C17.6227 82.9447 21.6401 96.6777 28.9998 106.511C36.3927 116.388 47.1136 122.254 60.2109 122.254V118.605ZM21.2941 67.1485C21.2941 52.2091 25.2111 39.3986 32.1387 30.37C39.0335 21.3846 48.9658 16.0573 61.3125 16.0573V12.4079C47.7758 12.4079 36.7811 18.3023 29.2196 28.1569C21.6911 37.9682 17.6227 51.6159 17.6227 67.1485H21.2941ZM61.3125 16.0573C71.4917 16.0573 79.1043 18.9944 84.6089 23.9552C90.1373 28.9369 93.7109 36.1148 95.4929 44.8838L99.0913 44.1609C97.202 34.8656 93.3411 26.8985 87.0746 21.2515C80.7855 15.5835 72.244 12.4079 61.3125 12.4079V16.0573ZM95.4924 44.8801L95.8596 46.7045L99.4591 45.9895L99.0919 44.1646L95.4924 44.8801ZM97.659 48.1719H113.446V44.5226H97.659V48.1719ZM115.273 46.1653L115.09 44.341L111.436 44.7038L111.62 46.5286L115.273 46.1653ZM115.088 44.3341C113.766 31.6521 108.737 20.5262 99.7766 12.5749C90.8141 4.62131 78.0936 0 61.6797 0V3.64938C77.3904 3.64938 89.1763 8.06027 97.3315 15.2972C105.489 22.5365 110.19 32.7594 111.437 44.7106L115.088 44.3341ZM61.6797 0C43.1841 0 27.7166 7.14304 16.892 19.2712C6.08423 31.3806 0 48.3478 0 67.8783H3.6714C3.6714 49.0907 9.51923 33.031 19.6384 21.6931C29.7408 10.374 44.1952 3.64938 61.6797 3.64938V0ZM0 67.8783C0 86.6282 5.22882 103.314 15.3176 115.348C25.4389 127.421 40.3324 134.662 59.2932 134.662V131.013C41.3563 131.013 27.521 124.204 18.138 113.012C8.72252 101.781 3.6714 85.9876 3.6714 67.8783H0ZM59.2932 134.662C74.2015 134.662 85.9466 129.775 93.526 121.275L90.7782 118.854C84.0394 126.412 73.3889 131.013 59.2932 131.013V134.662ZM93.8044 120.86L99.495 109.182L96.1908 107.591L90.5003 119.269L93.8044 120.86ZM96.007 108.387V130.283H99.6788V108.387H96.007ZM97.8429 132.107H111.794V128.458H97.8429V132.107ZM113.63 130.283V69.5205H109.958V130.283H113.63ZM111.794 67.6961H66.4526V71.3454H111.794V67.6961Z" fill="#5E17EB"/>
<path d="M120.789 67.7875H125.379H129.968L129.506 76.6552L128.153 85.8916C128.139 85.984 128.16 86.0769 128.212 86.1536C128.555 86.6691 128.16 87.3532 127.54 87.3196L120.789 86.9463V67.7875Z" fill="#9C75FD"/>
<path d="M129.508 67.7875C129.508 73.1089 129.508 78.2791 128.132 88.315" stroke="#9C75FD"/>
<path d="M420.577 113.417C420.949 113.302 435.568 109.806 435.568 109.806L434.251 108.187C433.531 107.202 434.123 106.694 434.66 106.244C435.285 105.628 440.079 100.734 440.079 100.734C440.079 100.734 434.924 99.2754 433.822 99.0087C432.969 98.8596 432.977 98.2569 432.992 97.6443C433.006 97.0316 433.2 93.7351 433.2 93.7351C433.2 93.7351 424.999 96.8704 424.633 96.976C423.274 97.1943 422.677 95.9522 423.435 95.1085C423.949 94.1378 432.79 83.9344 432.79 83.9344C432.79 83.9344 428.966 84.0903 427.735 84.0662C426.748 84.1696 426.252 83.9097 426.28 82.6844C426.17 81.6963 426.232 72.7629 426.232 72.7629C426.232 72.7629 418.863 77.8712 417.99 78.3447C416.99 79.0603 416.503 78.8057 416.021 77.9331C415.305 76.9388 413.272 73.7163 413.272 73.7163C413.272 73.7163 409.802 86.7316 409.288 87.7023C409.016 88.8006 407.657 89.019 407.061 87.7769C406.946 87.4068 404.906 78.9228 404.906 78.9228C404.906 78.9228 402.285 80.9361 401.784 81.2942C401.284 81.6522 400.788 82.0003 400.182 81.3855C399.328 80.628 395.211 77.2328 395.211 77.2328C395.211 77.2328 393.851 83.9244 393.703 84.7896C393.628 85.4942 393.546 86.2575 392.322 86.2239L390.228 86.0701C390.228 86.0701 395.584 100.023 395.708 100.398C395.947 101.143 396.295 101.635 395.046 102.842C393.778 104.038 392.257 105.735 392.257 105.735C392.257 105.735 402.554 108.633 403.665 108.904C404.558 109.26 405.318 110.079 404.803 111.05C404.288 112.02 398.433 121.704 398.433 121.704L401.352 123.232C401.352 123.232 406.074 112.967 406.593 111.987C407.113 111.007 408.207 111.17 409.027 111.711C409.871 112.463 418.099 119.263 418.099 119.263C418.099 119.263 418.647 117.058 418.932 115.347C419.218 113.636 419.833 113.648 420.577 113.417Z" fill="#5E17EB"/>
<path d="M166.338 26.2081V33.8941H175.213C174.072 39.4381 170.522 42.3991 165.45 42.3991C159.237 42.3991 154.292 37.6741 154.292 26.7751C154.292 17.1361 159.174 11.7811 165.577 11.7811C170.902 11.7811 174.009 14.4901 175.023 19.5301L175.15 20.1601H185.04L184.977 19.5301C184.089 10.9621 177.876 4.47307 165.704 4.47307C153.594 4.47307 143.831 12.7261 143.831 27.3421C143.831 41.5171 151.756 49.7071 163.675 49.7071C168.43 49.7071 171.6 48.7621 174.072 46.4941L176.038 41.9581L176.798 48.8251H184.66V26.2081H166.338ZM196.583 2.26807C193.413 2.26807 191.321 4.22107 191.321 7.24507C191.321 10.3321 193.413 12.2851 196.583 12.2851C199.753 12.2851 201.909 10.3321 201.909 7.24507C201.909 4.22107 199.753 2.26807 196.583 2.26807ZM201.592 48.8251V15.2461H191.638V48.8251H201.592ZM227.799 14.3641C225.834 14.3641 223.361 15.2461 221.649 17.0101L219.113 21.6721V15.2461H209.16V48.8251H219.113V34.7761C219.113 25.2631 222.474 22.1131 230.335 22.6171V14.6161C229.574 14.4901 228.877 14.3641 227.799 14.3641ZM244.12 2.52007H234.166V37.5481C234.166 39.8791 234.166 41.5171 234.293 43.1551C234.547 47.5651 237.336 49.3921 242.091 49.3921C244.31 49.3921 246.149 49.2661 248.051 49.0771V42.3361C245.071 42.4621 244.374 41.9581 244.184 40.4461C244.12 39.5641 244.12 38.8081 244.12 37.3591V2.52007ZM265.804 14.3641C257.308 14.3641 251.729 18.3961 251.729 24.9481C251.729 30.6811 255.85 33.5161 262.19 35.0911C268.149 36.4771 270.305 37.8001 270.305 40.1941C270.305 42.3361 268.403 43.3441 265.994 43.3441C263.204 43.3441 260.922 41.6431 260.224 38.4931H250.398C251.285 46.0531 257.308 49.7071 265.93 49.7071C273.855 49.7071 280.258 46.4311 280.258 39.4381C280.258 33.1381 276.074 30.4291 269.544 28.7911C263.521 27.2791 261.683 26.0191 261.683 23.7511C261.683 21.9871 263.014 20.6641 265.17 20.6641C267.642 20.6641 269.1 22.2391 269.671 25.0111H279.498C278.674 18.9001 273.982 14.3641 265.804 14.3641ZM317.999 4.47307C305.954 4.47307 296.57 12.7261 296.57 27.3421C296.57 41.5801 305.446 49.7071 317.429 49.7071C328.524 49.7071 336.068 43.9741 337.082 34.1461L337.146 33.5161H327.192L327.065 34.1461C326.051 39.3121 322.944 42.3991 317.809 42.3991C311.85 42.3991 307.031 37.6741 307.031 26.7751C307.031 17.1361 311.533 11.7811 317.873 11.7811C323.135 11.7811 326.241 14.4901 327.256 19.5301L327.382 20.1601H337.336L337.273 19.5301C336.385 10.9621 330.108 4.47307 317.999 4.47307ZM358.677 14.3641C347.455 14.3641 340.861 21.5461 340.861 32.0041C340.861 42.4621 347.455 49.7071 358.677 49.7071C369.835 49.7071 376.492 42.4621 376.492 32.0041C376.492 21.5461 369.835 14.3641 358.677 14.3641ZM358.677 42.9031C353.922 42.9031 351.069 38.9971 351.069 32.0041C351.069 25.0111 353.922 21.1681 358.677 21.1681C363.368 21.1681 366.221 25.0111 366.221 32.0041C366.221 38.9971 363.368 42.9031 358.677 42.9031ZM415.88 2.52007H405.926V19.6561L403.707 16.1281C401.995 15.0571 398.635 14.3641 395.846 14.3641C387.16 14.3641 379.742 20.6641 379.742 32.6971C379.742 42.6511 385.385 49.7071 394.705 49.7071C398.128 49.7071 401.488 48.9511 403.39 47.5021L405.926 43.7851V48.8251H415.88V2.52007ZM397.874 42.9031C393.183 42.9031 389.95 38.7451 389.95 32.1301C389.95 24.8221 393.373 21.1681 398.191 21.1681C401.932 21.1681 405.926 23.6881 405.926 30.8701V32.4451C405.926 40.1311 402.376 42.9031 397.874 42.9031ZM455.203 31.4371C455.203 22.4911 449.624 14.3641 438.846 14.3641C428.132 14.3641 421.348 22.0501 421.348 32.1301C421.348 43.9741 428.766 49.7071 438.212 49.7071C446.454 49.7071 452.794 45.6121 454.632 37.8631H444.805C444.235 41.0131 441.889 42.9031 438.402 42.9031C434.662 42.9031 431.872 41.0131 431.301 34.5871H455.013C455.139 33.3901 455.203 32.3191 455.203 31.4371ZM438.402 21.1681C442.079 21.1681 444.298 23.6251 444.869 28.3501H431.555C432.379 23.3731 434.852 21.1681 438.402 21.1681ZM165.26 77.9731C153.214 77.9731 143.831 86.2261 143.831 100.842C143.831 115.08 152.707 123.207 164.689 123.207C175.784 123.207 183.329 117.474 184.343 107.646L184.406 107.016H174.453L174.326 107.646C173.312 112.812 170.205 115.899 165.07 115.899C159.11 115.899 154.292 111.174 154.292 100.275C154.292 90.6361 158.793 85.2811 165.133 85.2811C170.395 85.2811 173.502 87.9901 174.516 93.0301L174.643 93.6601H184.597L184.533 93.0301C183.646 84.4621 177.369 77.9731 165.26 77.9731ZM209.931 122.325H219.631C219.124 118.608 218.997 116.34 218.997 113.82V103.614C218.997 101.661 218.934 99.7711 218.807 98.1961C218.3 92.2111 214.686 87.8641 204.669 87.8641C196.427 87.8641 189.897 92.2111 189.707 99.8971H199.217C199.47 96.5581 201.182 94.6681 204.289 94.6681C207.268 94.6681 208.79 96.3061 208.98 98.3221C209.107 99.4561 209.107 100.338 209.107 101.22V101.787H206.951C195.033 101.787 188.502 106.071 188.502 113.379C188.502 119.742 193.638 123.207 199.344 123.207C202.45 123.207 205.303 122.514 207.712 121.002L209.234 117.411L209.931 122.325ZM203.274 116.403C200.548 116.403 198.71 115.08 198.71 112.56C198.71 108.654 202.957 107.142 209.107 107.646V110.103C209.107 114.261 206.254 116.403 203.274 116.403ZM259.144 97.1251C258.383 91.2661 254.262 87.8641 247.162 87.8641C243.992 87.8641 241.583 88.4941 239.3 90.0061L236.511 94.0381V88.7461H226.557V122.325H236.511V106.764C236.511 98.1961 239.427 94.6681 243.358 94.6681C247.225 94.6681 249.127 96.8101 249.381 100.212C249.507 101.913 249.507 103.614 249.507 104.874V122.325H259.461V103.362C259.461 100.653 259.398 98.8261 259.144 97.1251ZM286.27 122.325H295.97C295.463 118.608 295.336 116.34 295.336 113.82V103.614C295.336 101.661 295.272 99.7711 295.146 98.1961C294.638 92.2111 291.025 87.8641 281.008 87.8641C272.766 87.8641 266.236 92.2111 266.046 99.8971H275.555C275.809 96.5581 277.521 94.6681 280.627 94.6681C283.607 94.6681 285.129 96.3061 285.319 98.3221C285.446 99.4561 285.446 100.338 285.446 101.22V101.787H283.29C271.371 101.787 264.841 106.071 264.841 113.379C264.841 119.742 269.976 123.207 275.682 123.207C278.789 123.207 281.642 122.514 284.051 121.002L285.572 117.411L286.27 122.325ZM279.613 116.403C276.887 116.403 275.048 115.08 275.048 112.56C275.048 108.654 279.296 107.142 285.446 107.646V110.103C285.446 114.261 282.593 116.403 279.613 116.403ZM336.941 76.0201H326.987V93.1561L324.768 89.6281C323.056 88.5571 319.696 87.8641 316.907 87.8641C308.221 87.8641 300.803 94.1641 300.803 106.197C300.803 116.151 306.446 123.207 315.766 123.207C319.189 123.207 322.549 122.451 324.451 121.002L326.987 117.285V122.325H336.941V76.0201ZM318.936 116.403C314.244 116.403 311.011 112.245 311.011 105.63C311.011 98.3221 314.434 94.6681 319.252 94.6681C322.993 94.6681 326.987 97.1881 326.987 104.37V105.945C326.987 113.631 323.437 116.403 318.936 116.403ZM364.218 122.325H373.918C373.411 118.608 373.284 116.34 373.284 113.82V103.614C373.284 101.661 373.221 99.7711 373.094 98.1961C372.587 92.2111 368.973 87.8641 358.956 87.8641C350.714 87.8641 344.184 92.2111 343.994 99.8971H353.504C353.757 96.5581 355.469 94.6681 358.576 94.6681C361.555 94.6681 363.077 96.3061 363.267 98.3221C363.394 99.4561 363.394 100.338 363.394 101.22V101.787H361.238C349.319 101.787 342.789 106.071 342.789 113.379C342.789 119.742 347.925 123.207 353.631 123.207C356.737 123.207 359.59 122.514 361.999 121.002L363.521 117.411L364.218 122.325ZM357.561 116.403C354.835 116.403 352.997 115.08 352.997 112.56C352.997 108.654 357.244 107.142 363.394 107.646V110.103C363.394 114.261 360.541 116.403 357.561 116.403Z" fill="#5E17EB"/>
</svg>
