<svg width="89" height="80" viewBox="0 0 89 80" fill="none" xmlns="http://www.w3.org/2000/svg">
<path d="M36.3074 79.3999V70.427H34.2788V74.4193C34.2788 75.0825 34.2918 76.0969 34.3438 77.0332L30.7286 70.427H28.1147V79.3999H30.1564V75.4987C30.1564 74.8484 30.1434 73.9251 30.0784 72.9758L33.5895 79.3999H36.3074ZM45.1684 70.479C44.7132 70.427 44.5051 70.427 44.024 70.427H40.7989V79.3999H44.0111C44.4922 79.3999 44.7003 79.3999 45.1554 79.3479C47.2361 79.1008 48.9137 77.5663 48.9137 74.7964C48.9137 72.0265 47.2491 70.7131 45.1684 70.479ZM44.6613 77.7744C44.3622 77.8004 44.1281 77.8004 43.7509 77.8004H42.8407V72.0135H43.764C44.141 72.0135 44.3752 72.0265 44.6743 72.0525C45.9357 72.1956 46.768 73.1319 46.768 74.8224C46.768 76.552 45.9227 77.6314 44.6613 77.7744ZM61.011 70.427H58.9823V74.1982H55.055V70.427H53.0133V79.3999H55.055V75.7978H58.9823V79.3999H61.011V70.427Z" fill="black"/>
<path d="M2.82998 61.0367C3.84065 61.0367 4.65997 60.2174 4.65997 59.2067C4.65997 58.196 3.84065 57.3767 2.82998 57.3767C1.81931 57.3767 1 58.196 1 59.2067C1 60.2174 1.81931 61.0367 2.82998 61.0367Z" stroke="black" stroke-width="1.61"/>
<path d="M34.724 46.3968C35.7347 46.3968 36.554 45.5775 36.554 44.5668C36.554 43.5561 35.7347 42.7368 34.724 42.7368C33.7134 42.7368 32.894 43.5561 32.894 44.5668C32.894 45.5775 33.7134 46.3968 34.724 46.3968Z" stroke="black" stroke-width="1.61"/>
<path d="M3.95508 57.9303L26.998 20.3301L51.6803 61.0298H86.3405L51.4177 3L16.7574 61.0298H44.8533L35.77 45.874" stroke="black" stroke-width="2.5"/>
</svg>
