<svg width="260" height="186" viewBox="0 0 260 186" fill="none" xmlns="http://www.w3.org/2000/svg">
<path d="M8.36083 181.996C11.3215 181.996 13.7217 179.525 13.7217 176.478C13.7217 173.43 11.3215 170.96 8.36083 170.96C5.40013 170.96 3 173.43 3 176.478C3 179.525 5.40013 181.996 8.36083 181.996Z" stroke="#133C9A" stroke-width="4.375"/>
<path d="M101.791 137.853C104.752 137.853 107.152 135.383 107.152 132.335C107.152 129.288 104.752 126.817 101.791 126.817C98.8308 126.817 96.4307 129.288 96.4307 132.335C96.4307 135.383 98.8308 137.853 101.791 137.853Z" stroke="#133C9A" stroke-width="4.375"/>
<path d="M11.6562 172.629L79.159 59.2551L151.464 181.975H253L150.695 7L49.16 181.975H131.465L104.856 136.277" stroke="#133C9A" stroke-width="7"/>
</svg>
